<svg xmlns="http://www.w3.org/2000/svg" width="287" height="272" fill="none"><path fill="#fff" d="M0 0h286.726v271.434H0z"/><path fill="#767676" d="M30.378 235.43h1.812l1.915 4.67h.081l1.914-4.67h1.813v6.951h-1.426v-4.524h-.058l-1.798 4.49h-.971l-1.799-4.507h-.058v4.541h-1.425v-6.951Zm36.464 1.212v-1.212h5.708v1.212h-2.128v5.739H68.97v-5.739h-2.128Zm35.441 5.739-1.988-6.951h1.605l1.15 4.83h.058l1.269-4.83h1.375l1.266 4.84h.061l1.151-4.84h1.605l-1.989 6.951h-1.432l-1.324-4.545h-.054l-1.32 4.545h-1.433Zm35.939-5.739v-1.212h5.708v1.212h-2.128v5.739h-1.452v-5.739h-2.128Zm36.474 5.739v-6.951h4.602v1.212h-3.133v1.656h2.828v1.212h-2.828v2.871h-1.469Zm39.461-4.952a.859.859 0 0 0-.35-.638c-.206-.152-.485-.227-.838-.227-.24 0-.443.033-.608.101a.862.862 0 0 0-.38.275.662.662 0 0 0-.129.401.583.583 0 0 0 .078.326.825.825 0 0 0 .241.241c.102.065.22.123.353.173.134.047.276.088.428.122l.624.149c.304.068.582.159.835.272.254.113.473.252.659.417.185.165.329.36.431.584.104.224.157.481.159.77a1.92 1.92 0 0 1-.326 1.107c-.212.31-.52.551-.923.723-.4.169-.883.254-1.449.254-.561 0-1.05-.086-1.466-.258a2.148 2.148 0 0 1-.971-.763c-.231-.34-.352-.759-.363-1.259h1.422c.016.233.083.427.2.583.12.154.28.271.479.35.201.077.429.115.682.115.249 0 .465-.036.648-.108a.99.99 0 0 0 .431-.302.699.699 0 0 0 .153-.445.579.579 0 0 0-.139-.394 1.053 1.053 0 0 0-.401-.271 4.026 4.026 0 0 0-.641-.204l-.757-.19c-.586-.143-1.049-.365-1.388-.669-.339-.303-.508-.711-.506-1.225-.002-.421.11-.788.336-1.103a2.27 2.27 0 0 1 .94-.736 3.314 3.314 0 0 1 1.358-.265c.516 0 .966.088 1.351.265.387.176.688.422.903.736.215.315.325.679.332 1.093h-1.408Zm20.227-.787v-1.212h5.708v1.212h-2.128v5.739h-1.452v-5.739h-2.128Zm8.221 5.841c-.527 0-.983-.112-1.368-.336a2.305 2.305 0 0 1-.886-.944c-.208-.405-.312-.874-.312-1.408 0-.539.104-1.01.312-1.412.208-.405.504-.72.886-.944.385-.226.841-.339 1.368-.339.527 0 .982.113 1.364.339.385.224.681.539.889.944.209.402.313.873.313 1.412 0 .534-.104 1.003-.313 1.408a2.293 2.293 0 0 1-.889.944c-.382.224-.837.336-1.364.336Zm.007-1.12c.239 0 .44-.068.6-.204.161-.138.282-.326.363-.563.084-.238.126-.508.126-.812 0-.303-.042-.573-.126-.811a1.258 1.258 0 0 0-.363-.563.888.888 0 0 0-.6-.207.919.919 0 0 0-.611.207 1.268 1.268 0 0 0-.37.563 2.481 2.481 0 0 0-.123.811c0 .304.041.574.123.812.083.237.207.425.37.563a.928.928 0 0 0 .611.204Zm5.42 1.103c-.396 0-.755-.102-1.076-.306-.319-.206-.573-.508-.76-.906-.186-.4-.279-.891-.279-1.473 0-.597.096-1.094.289-1.49.192-.398.448-.696.767-.893a1.964 1.964 0 0 1 1.055-.298c.292 0 .535.05.73.149a1.4 1.4 0 0 1 .475.367c.122.144.215.287.279.427h.044v-2.613h1.442v6.951h-1.425v-.835h-.061a1.89 1.89 0 0 1-.289.431 1.44 1.44 0 0 1-.479.35 1.655 1.655 0 0 1-.712.139Zm.458-1.151a.92.92 0 0 0 .59-.19c.163-.129.288-.309.374-.54.088-.23.132-.501.132-.811 0-.31-.043-.579-.129-.808a1.157 1.157 0 0 0-.373-.529.953.953 0 0 0-.594-.187.938.938 0 0 0-.601.194 1.187 1.187 0 0 0-.37.536 2.322 2.322 0 0 0-.125.794c0 .303.042.572.125.805.086.23.21.411.37.543a.937.937 0 0 0 .601.193Zm5.183 1.164c-.332 0-.629-.057-.889-.173a1.434 1.434 0 0 1-.618-.519c-.149-.231-.224-.518-.224-.862 0-.29.054-.533.16-.73.106-.197.251-.355.434-.475.184-.12.392-.21.625-.272.235-.061.482-.104.74-.129.303-.031.547-.061.733-.088.185-.029.32-.072.404-.129a.281.281 0 0 0 .125-.251v-.02c0-.215-.067-.382-.203-.499-.134-.118-.324-.177-.57-.177-.261 0-.468.058-.622.173a.805.805 0 0 0-.305.428l-1.337-.109c.068-.316.201-.59.4-.821.199-.233.456-.412.771-.536.316-.127.683-.19 1.099-.19.29 0 .567.034.832.102.267.067.503.173.709.315.208.143.372.326.492.55.12.222.18.488.18.798v3.516h-1.371v-.723h-.041a1.44 1.44 0 0 1-.841.719 2.093 2.093 0 0 1-.683.102Zm.414-.998c.213 0 .401-.041.564-.125a.996.996 0 0 0 .383-.346.892.892 0 0 0 .14-.492v-.554a.774.774 0 0 1-.187.082 3.581 3.581 0 0 1-.261.064l-.292.051-.265.038c-.17.024-.318.064-.445.118a.718.718 0 0 0-.295.221.538.538 0 0 0-.105.339c0 .197.071.348.214.452a.93.93 0 0 0 .549.152Zm4.35 2.855a2.91 2.91 0 0 1-.516-.044 1.873 1.873 0 0 1-.394-.106l.326-1.079c.17.052.323.081.458.085a.58.58 0 0 0 .357-.095c.102-.068.184-.183.247-.346l.085-.221-1.87-5.362h1.521l1.079 3.828h.054l1.09-3.828h1.531l-2.027 5.776a2.4 2.4 0 0 1-.397.733 1.617 1.617 0 0 1-.628.486c-.253.115-.559.173-.916.173Z"/><rect width="27.01" height="45.435" x="21.982" y="177.404" fill="#3398F6" rx="4.779"/><rect width="27.01" height="87.788" x="57.672" y="135.051" fill="#3398F6" rx="4.779"/><rect width="27.01" height="31.752" x="93.362" y="191.088" fill="#3398F6" rx="4.779"/><rect width="27.01" height="101.488" x="129.052" y="121.352" fill="#3398F6" rx="4.779"/><rect width="27.01" height="79.969" x="164.742" y="142.87" fill="#3398F6" rx="4.779"/><rect width="27.01" height="36.469" x="200.432" y="186.37" fill="#3398F6" rx="4.779"/><rect width="27.01" height="51.849" x="236.123" y="170.99" fill="#3398F6" rx="4.779"/><path fill="#001726" d="M105.544 44.398v-1.956a55.171 55.171 0 0 0 3.196-2.313c.883-.7 1.591-1.346 2.123-1.934.547-.603.94-1.17 1.178-1.703a3.709 3.709 0 0 0 .378-1.598c0-.645-.196-1.171-.588-1.578-.393-.42-.947-.63-1.661-.63-.785 0-1.402.266-1.851.799-.434.532-.673 1.29-.715 2.27l-2.502-.946c.07-.953.323-1.759.757-2.418a4.295 4.295 0 0 1 1.808-1.535c.771-.364 1.654-.546 2.65-.546.855 0 1.591.119 2.208.357.63.238 1.149.568 1.556.988.42.407.735.877.946 1.41.21.532.315 1.086.315 1.66 0 .897-.224 1.745-.673 2.544-.434.8-1.107 1.592-2.018 2.377-.911.785-2.068 1.611-3.47 2.48v.022c.211-.014.463-.028.757-.042.309-.014.624-.022.946-.022.323-.014.603-.02.842-.02h3.826v2.334h-10.008Zm11.939 0V29.279h2.881v6.392c.336-.672.799-1.17 1.387-1.492.589-.337 1.255-.505 1.998-.505.729 0 1.374.14 1.934.42.575.28 1.024.708 1.346 1.283.337.56.505 1.269.505 2.124v6.897h-2.881v-6.056c0-.911-.175-1.535-.526-1.871-.35-.351-.799-.526-1.345-.526-.407 0-.799.098-1.178.294-.364.182-.666.49-.904.925-.224.42-.336.982-.336 1.682v5.552h-2.881Zm18.037 0v-1.956a55.171 55.171 0 0 0 3.196-2.313c.883-.7 1.591-1.346 2.123-1.934.547-.603.94-1.17 1.178-1.703a3.709 3.709 0 0 0 .378-1.598c0-.645-.196-1.171-.588-1.578-.393-.42-.947-.63-1.661-.63-.785 0-1.402.266-1.851.799-.434.532-.673 1.29-.715 2.27l-2.502-.946c.07-.953.323-1.759.757-2.418a4.295 4.295 0 0 1 1.808-1.535c.771-.364 1.654-.546 2.65-.546.855 0 1.591.119 2.208.357.63.238 1.149.568 1.555.988.421.407.736.877.947 1.41.21.532.315 1.086.315 1.66 0 .897-.224 1.745-.673 2.544-.434.8-1.107 1.592-2.018 2.377-.911.785-2.068 1.611-3.47 2.48v.022c.211-.014.463-.028.757-.042.309-.014.624-.022.946-.022.323-.014.603-.02.842-.02h3.826v2.334H135.52Zm17.112.21c-1.781 0-3.154-.603-4.122-1.809-.953-1.205-1.429-2.985-1.429-5.34s.476-4.136 1.429-5.341c.968-1.206 2.341-1.808 4.122-1.808 1.78 0 3.147.602 4.1 1.808.967 1.206 1.451 2.986 1.451 5.34 0 2.356-.484 4.136-1.451 5.341-.953 1.206-2.32 1.809-4.1 1.809Zm0-2.334c.602 0 1.093-.168 1.471-.505.393-.35.687-.876.884-1.577.196-.715.294-1.626.294-2.733 0-1.108-.098-2.012-.294-2.713-.197-.715-.491-1.24-.884-1.577-.378-.35-.869-.525-1.471-.525-.603 0-1.101.175-1.493.525-.393.337-.687.862-.883 1.577-.183.701-.274 1.605-.274 2.713 0 1.107.091 2.018.274 2.733.196.701.49 1.227.883 1.577.392.337.89.505 1.493.505Zm7.564 2.123V33.885h2.586l.105 1.893c.351-.701.827-1.227 1.43-1.577a4.057 4.057 0 0 1 2.039-.526c.757 0 1.437.175 2.04.526.617.35 1.079.869 1.388 1.555a3.35 3.35 0 0 1 .904-1.156 3.96 3.96 0 0 1 1.262-.694 4.423 4.423 0 0 1 1.408-.231c.687 0 1.311.14 1.872.42.574.28 1.03.701 1.366 1.262.337.56.505 1.276.505 2.145v6.897h-2.881v-6.33c0-.77-.168-1.317-.504-1.64-.337-.322-.771-.483-1.304-.483-.42 0-.813.105-1.177.315-.351.21-.631.526-.841.946-.197.407-.295.918-.295 1.535v5.657h-2.88v-6.33c0-.77-.176-1.317-.526-1.64-.337-.322-.771-.483-1.304-.483a2.29 2.29 0 0 0-1.093.294c-.351.196-.645.505-.883.925-.225.42-.337.975-.337 1.661v5.572h-2.88Z"/><path fill="#696969" d="M44.763 72.257h-1.236l3.573-9.732h1.217l3.573 9.732h-1.235l-2.908-8.192h-.076l-2.908 8.192Zm.456-3.802h4.98v1.046h-4.98v-1.046Zm13.088-3.497-2.699 7.299h-1.14l-2.699-7.299h1.216L55 70.774h.076l2.015-5.816h1.216Zm4.279 7.45c-.703 0-1.31-.154-1.82-.465a3.125 3.125 0 0 1-1.173-1.311c-.273-.564-.41-1.22-.41-1.967 0-.748.137-1.407.41-1.977a3.223 3.223 0 0 1 1.15-1.34c.494-.323 1.07-.485 1.729-.485.38 0 .755.064 1.126.19a2.8 2.8 0 0 1 1.012.618c.304.282.547.656.727 1.121.18.466.271 1.04.271 1.72v.476h-5.626v-.97h4.486c0-.411-.083-.779-.247-1.102a1.862 1.862 0 0 0-.694-.765c-.298-.187-.65-.28-1.055-.28-.447 0-.833.11-1.16.332a2.188 2.188 0 0 0-.745.856 2.513 2.513 0 0 0-.262 1.13v.647c0 .55.095 1.018.285 1.401.194.38.461.67.803.87.343.196.74.294 1.193.294.295 0 .56-.04.798-.123a1.71 1.71 0 0 0 .623-.38c.174-.171.309-.383.404-.637l1.083.304c-.114.368-.306.69-.575.97-.27.275-.602.49-.998.646a3.7 3.7 0 0 1-1.335.228Zm4.728-.151v-7.299h1.083v1.103h.076c.133-.361.374-.654.722-.88a2.126 2.126 0 0 1 1.179-.337c.082 0 .185.002.309.005a4.1 4.1 0 0 1 .28.014v1.14a3.337 3.337 0 0 0-.261-.042 2.57 2.57 0 0 0-.423-.033 1.98 1.98 0 0 0-.95.223 1.637 1.637 0 0 0-.894 1.488v4.618h-1.121Zm7.126.17c-.462 0-.882-.086-1.26-.26a2.16 2.16 0 0 1-.897-.766c-.222-.335-.333-.74-.333-1.216 0-.418.083-.757.247-1.017a1.74 1.74 0 0 1 .66-.617c.276-.15.58-.26.913-.333.336-.076.673-.136 1.012-.18.444-.058.803-.1 1.079-.129.279-.032.481-.084.608-.157.13-.072.195-.2.195-.38v-.038c0-.469-.128-.833-.385-1.093-.253-.26-.638-.39-1.155-.39-.535 0-.955.118-1.259.352-.304.235-.518.485-.641.751l-1.065-.38c.19-.444.444-.789.76-1.036a2.87 2.87 0 0 1 1.046-.523 4.34 4.34 0 0 1 1.121-.152c.235 0 .504.029.808.086a2.6 2.6 0 0 1 .889.337c.288.171.527.43.717.775.19.345.285.807.285 1.387v4.809h-1.121v-.989h-.057a1.972 1.972 0 0 1-.38.509c-.178.18-.414.334-.708.46-.295.128-.654.19-1.079.19Zm.171-1.006c.444 0 .817-.088 1.121-.262a1.78 1.78 0 0 0 .932-1.544v-1.026c-.048.057-.152.109-.314.156a5.313 5.313 0 0 1-.55.12 24.745 24.745 0 0 1-1.075.142 4.32 4.32 0 0 0-.817.185 1.41 1.41 0 0 0-.608.375c-.152.165-.228.39-.228.675 0 .39.144.684.432.884.291.196.66.295 1.107.295Zm8.167 3.725c-.542 0-1.007-.07-1.397-.21a2.965 2.965 0 0 1-.974-.54 2.963 2.963 0 0 1-.613-.714l.893-.627c.102.133.23.285.385.456.155.175.368.325.637.452.272.13.629.195 1.069.195.59 0 1.075-.143 1.459-.428.383-.285.575-.732.575-1.34v-1.483h-.095a6.02 6.02 0 0 1-.352.495 1.994 1.994 0 0 1-.646.517c-.279.15-.656.224-1.131.224a3.05 3.05 0 0 1-1.587-.418c-.466-.28-.835-.685-1.107-1.217-.27-.532-.404-1.178-.404-1.938 0-.748.131-1.399.394-1.953.263-.558.629-.989 1.098-1.293.469-.307 1.01-.46 1.625-.46.475 0 .852.078 1.13.237.283.155.498.332.647.532.152.197.27.358.352.485h.114v-1.16h1.083v7.508c0 .627-.143 1.137-.428 1.53a2.435 2.435 0 0 1-1.14.87 4.302 4.302 0 0 1-1.587.28Zm-.038-4.01c.45 0 .83-.103 1.14-.31a1.92 1.92 0 0 0 .708-.888c.162-.386.243-.849.243-1.387 0-.526-.08-.99-.238-1.393a2.09 2.09 0 0 0-.703-.945c-.31-.228-.694-.342-1.15-.342-.475 0-.871.12-1.188.36a2.2 2.2 0 0 0-.708.97 3.748 3.748 0 0 0-.233 1.35c0 .506.08.955.238 1.344.161.387.399.69.713.913.316.218.71.327 1.178.327Zm8.306 1.273c-.704 0-1.31-.155-1.82-.466a3.126 3.126 0 0 1-1.174-1.311c-.272-.564-.408-1.22-.408-1.967 0-.748.136-1.407.408-1.977a3.223 3.223 0 0 1 1.15-1.34c.494-.323 1.07-.485 1.73-.485.38 0 .755.064 1.126.19a2.8 2.8 0 0 1 1.012.618c.304.282.546.656.727 1.121.18.466.27 1.04.27 1.72v.476h-5.625v-.97h4.485a2.39 2.39 0 0 0-.247-1.102 1.862 1.862 0 0 0-.693-.765c-.298-.187-.65-.28-1.055-.28-.447 0-.833.11-1.16.332a2.187 2.187 0 0 0-.746.856 2.512 2.512 0 0 0-.261 1.13v.647c0 .55.095 1.018.285 1.401.193.38.461.67.803.87.342.196.74.294 1.193.294.294 0 .56-.04.798-.123.24-.086.448-.212.623-.38.174-.171.308-.383.403-.637l1.084.304c-.114.368-.306.69-.575.97-.27.275-.602.49-.998.646a3.7 3.7 0 0 1-1.335.228Zm11.665-7.45v.95h-3.782v-.95h3.782Zm-2.68-1.75h1.121v6.957c0 .317.046.555.138.713.095.155.216.26.361.313.149.051.306.077.471.077.123 0 .225-.007.304-.02l.19-.037.228 1.007a2.295 2.295 0 0 1-.318.085 2.355 2.355 0 0 1-.518.048 2.25 2.25 0 0 1-.932-.205 1.844 1.844 0 0 1-.75-.622c-.197-.279-.295-.63-.295-1.055v-7.26Zm4.367 9.048v-7.299h1.121v7.299h-1.121Zm.57-8.515a.795.795 0 0 1-.565-.223.715.715 0 0 1-.233-.537c0-.21.077-.388.233-.537a.795.795 0 0 1 .565-.224c.219 0 .405.075.561.224a.711.711 0 0 1 .237.537.712.712 0 0 1-.237.537.782.782 0 0 1-.561.223Zm2.605 8.515v-7.299h1.083v1.14h.095a1.84 1.84 0 0 1 .737-.907c.339-.218.746-.328 1.221-.328.482 0 .882.11 1.202.328.323.216.575.518.756.908h.076a2.12 2.12 0 0 1 .841-.898c.374-.225.822-.338 1.345-.338.652 0 1.186.205 1.601.613.415.406.622 1.038.622 1.896v4.885h-1.121v-4.885c0-.538-.147-.923-.442-1.154a1.636 1.636 0 0 0-1.041-.347c-.513 0-.91.155-1.192.465-.282.308-.423.697-.423 1.17v4.75h-1.141v-4.998c0-.415-.134-.749-.403-1.002-.27-.257-.617-.385-1.041-.385a1.53 1.53 0 0 0-.817.233 1.75 1.75 0 0 0-.608.646 1.898 1.898 0 0 0-.229.945v4.562h-1.121Zm14.69.152c-.704 0-1.31-.155-1.82-.466a3.128 3.128 0 0 1-1.174-1.311c-.272-.564-.408-1.22-.408-1.967 0-.748.136-1.407.408-1.977.276-.573.659-1.02 1.15-1.34.494-.323 1.071-.485 1.73-.485.38 0 .755.064 1.126.19a2.8 2.8 0 0 1 1.012.618c.304.282.546.656.727 1.121.18.466.271 1.04.271 1.72v.476h-5.626v-.97h4.485a2.39 2.39 0 0 0-.247-1.102 1.858 1.858 0 0 0-.694-.765c-.297-.187-.649-.28-1.054-.28-.447 0-.833.11-1.16.332a2.187 2.187 0 0 0-.746.856 2.515 2.515 0 0 0-.261 1.13v.647c0 .55.095 1.018.285 1.401.193.38.461.67.803.87.342.196.74.294 1.193.294.294 0 .56-.04.798-.123.241-.086.448-.212.622-.38.175-.171.309-.383.404-.637l1.084.304c-.114.368-.306.69-.575.97a2.81 2.81 0 0 1-.998.646 3.7 3.7 0 0 1-1.335.228Zm9.213 2.585c-.19 0-.36-.016-.508-.048a1.341 1.341 0 0 1-.309-.085l.285-.989c.272.07.513.095.722.076a.867.867 0 0 0 .556-.28c.165-.165.315-.432.451-.803l.21-.57-2.699-7.337h1.216l2.015 5.816h.076l2.014-5.816h1.217l-3.098 8.363a3.16 3.16 0 0 1-.518.936 1.94 1.94 0 0 1-.718.556 2.21 2.21 0 0 1-.912.18Zm9.43-2.585c-.659 0-1.237-.157-1.735-.47a3.198 3.198 0 0 1-1.159-1.317c-.276-.564-.414-1.222-.414-1.976 0-.76.138-1.424.414-1.991a3.192 3.192 0 0 1 1.159-1.321c.498-.314 1.076-.47 1.735-.47.658 0 1.235.156 1.729.47.498.313.884.754 1.16 1.32.278.568.418 1.231.418 1.992 0 .754-.14 1.412-.418 1.976a3.152 3.152 0 0 1-1.16 1.317c-.494.313-1.071.47-1.729.47Zm0-1.008c.5 0 .912-.128 1.235-.384a2.28 2.28 0 0 0 .718-1.012 3.88 3.88 0 0 0 .232-1.36 3.92 3.92 0 0 0-.232-1.363 2.307 2.307 0 0 0-.718-1.022c-.323-.26-.735-.39-1.235-.39-.501 0-.913.13-1.236.39-.323.26-.562.6-.717 1.022a3.896 3.896 0 0 0-.233 1.364c0 .487.077.94.233 1.359.155.418.394.755.717 1.012.323.256.735.385 1.236.385Zm9.618-2.128v-4.315h1.121v7.299h-1.121V71.02h-.076a2.395 2.395 0 0 1-.798.946c-.361.257-.818.385-1.369.385-.456 0-.861-.1-1.216-.3a2.088 2.088 0 0 1-.836-.912c-.203-.408-.305-.923-.305-1.544v-4.638h1.122v4.562c0 .532.149.957.447 1.273.3.317.684.475 1.149.475.279 0 .563-.07.851-.213.291-.143.535-.361.732-.656.199-.295.299-.67.299-1.126Zm12.108-2.68-1.007.285a1.875 1.875 0 0 0-.28-.49 1.36 1.36 0 0 0-.495-.398c-.209-.105-.476-.157-.803-.157-.446 0-.818.103-1.116.308-.295.203-.442.461-.442.775 0 .279.101.499.304.66.203.162.52.297.95.404l1.084.266c.652.159 1.139.401 1.458.728.32.323.48.74.48 1.25 0 .417-.12.791-.361 1.12-.237.33-.57.59-.998.78-.427.19-.925.285-1.492.285-.744 0-1.36-.162-1.848-.485-.488-.323-.797-.795-.927-1.416l1.065-.266c.101.393.293.688.575.884.285.196.657.295 1.116.295.523 0 .938-.111 1.245-.333.311-.225.466-.494.466-.808a.85.85 0 0 0-.266-.636c-.177-.175-.45-.305-.817-.39l-1.217-.285c-.668-.159-1.159-.404-1.473-.737-.31-.336-.465-.755-.465-1.259 0-.412.115-.776.346-1.093.235-.317.553-.565.955-.746.406-.18.865-.27 1.378-.27.723 0 1.29.158 1.702.474.415.317.709.735.883 1.255Zm1.821 8.4V64.959h1.084v1.16h.133c.082-.127.196-.288.342-.485.149-.2.361-.377.637-.532.278-.159.655-.238 1.131-.238.614 0 1.156.154 1.625.461.468.308.834.743 1.097 1.307s.395 1.229.395 1.996c0 .773-.132 1.443-.395 2.01-.263.563-.627 1-1.093 1.311-.465.307-1.002.46-1.61.46-.469 0-.845-.077-1.127-.232a2.086 2.086 0 0 1-.651-.537 7.05 7.05 0 0 1-.351-.504h-.095v3.859h-1.122Zm1.103-6.385c0 .55.081 1.037.242 1.458.162.418.398.746.708.984.311.234.691.352 1.14.352.469 0 .861-.124 1.174-.371a2.27 2.27 0 0 0 .713-1.007 3.97 3.97 0 0 0 .242-1.416c0-.514-.079-.976-.237-1.388a2.156 2.156 0 0 0-.708-.983c-.314-.244-.708-.366-1.184-.366-.456 0-.839.115-1.149.347-.311.228-.545.548-.704.96-.158.408-.237.885-.237 1.43Zm10.111 3.8c-.703 0-1.31-.154-1.82-.465a3.119 3.119 0 0 1-1.173-1.311c-.273-.564-.409-1.22-.409-1.967 0-.748.136-1.407.409-1.977a3.22 3.22 0 0 1 1.15-1.34c.494-.323 1.07-.485 1.729-.485.38 0 .756.064 1.126.19.371.127.708.333 1.012.618.304.282.547.656.727 1.121.181.466.271 1.04.271 1.72v.476h-5.626v-.97h4.486c0-.411-.083-.779-.247-1.102a1.865 1.865 0 0 0-.694-.765c-.298-.187-.649-.28-1.055-.28-.446 0-.833.11-1.159.332a2.187 2.187 0 0 0-.746.856 2.516 2.516 0 0 0-.262 1.13v.647c0 .55.095 1.018.286 1.401.193.38.46.67.803.87.342.196.739.294 1.192.294.295 0 .561-.04.798-.123.241-.086.449-.212.623-.38a1.73 1.73 0 0 0 .404-.637l1.083.304c-.114.368-.306.69-.575.97a2.8 2.8 0 0 1-.998.646 3.7 3.7 0 0 1-1.335.228Zm5.849-4.542v4.39h-1.121v-7.298h1.083v1.14h.095c.171-.37.431-.668.78-.893.348-.228.798-.342 1.349-.342.494 0 .927.102 1.297.304.371.2.659.504.865.913.206.405.309.918.309 1.54v4.637h-1.121v-4.562c0-.573-.149-1.02-.447-1.34-.298-.323-.706-.484-1.226-.484a1.95 1.95 0 0 0-.96.233 1.66 1.66 0 0 0-.66.679c-.162.298-.243.659-.243 1.083Zm9.88-2.908v.95h-3.782v-.95h3.782Zm-2.68-1.748h1.122v6.956c0 .317.046.555.137.713a.71.71 0 0 0 .362.313c.148.051.305.077.47.077.124 0 .225-.007.304-.02l.19-.037.228 1.007a2.295 2.295 0 0 1-.318.085 2.349 2.349 0 0 1-.518.048c-.317 0-.627-.068-.931-.205a1.847 1.847 0 0 1-.751-.622c-.197-.279-.295-.63-.295-1.055v-7.26Zm8.13 11.784V64.958h1.084v1.16h.133c.082-.127.196-.288.342-.485.149-.2.361-.377.637-.532.278-.159.655-.238 1.13-.238.615 0 1.157.154 1.625.461.469.308.835.743 1.098 1.307.263.564.394 1.229.394 1.996 0 .773-.131 1.443-.394 2.01-.263.563-.627 1-1.093 1.311-.465.307-1.002.46-1.611.46-.468 0-.844-.077-1.126-.232a2.086 2.086 0 0 1-.651-.537 7.05 7.05 0 0 1-.351-.504h-.095v3.859h-1.122Zm1.103-6.386c0 .55.08 1.037.242 1.458.162.418.398.746.708.984.31.234.691.352 1.14.352.469 0 .86-.124 1.174-.371a2.27 2.27 0 0 0 .713-1.007 3.97 3.97 0 0 0 .242-1.416c0-.514-.079-.976-.237-1.388a2.156 2.156 0 0 0-.708-.983c-.314-.244-.708-.366-1.184-.366-.456 0-.839.115-1.15.347-.31.228-.544.548-.703.96-.158.408-.237.885-.237 1.43Zm10.111 3.8c-.703 0-1.31-.154-1.82-.465a3.119 3.119 0 0 1-1.173-1.311c-.273-.564-.409-1.22-.409-1.967 0-.748.136-1.407.409-1.977a3.217 3.217 0 0 1 1.149-1.34c.495-.323 1.071-.485 1.73-.485.38 0 .756.064 1.126.19.371.127.708.333 1.012.618.304.282.547.656.727 1.121.181.466.271 1.04.271 1.72v.476h-5.626v-.97h4.486c0-.411-.083-.779-.247-1.102a1.865 1.865 0 0 0-.694-.765c-.298-.187-.649-.28-1.055-.28-.447 0-.833.11-1.159.332a2.187 2.187 0 0 0-.746.856 2.503 2.503 0 0 0-.262 1.13v.647c0 .55.095 1.018.285 1.401.194.38.461.67.803.87.343.196.74.294 1.193.294.295 0 .561-.04.798-.123.241-.086.449-.212.623-.38a1.73 1.73 0 0 0 .404-.637l1.083.304c-.114.368-.306.69-.575.97a2.8 2.8 0 0 1-.998.646 3.7 3.7 0 0 1-1.335.228Zm4.728-.151v-7.299h1.083v1.103h.076c.133-.361.374-.654.723-.88a2.124 2.124 0 0 1 1.178-.337c.082 0 .185.002.309.005.123.003.217.008.28.014v1.14a3.337 3.337 0 0 0-.261-.042 2.569 2.569 0 0 0-.423-.033 1.98 1.98 0 0 0-.95.223 1.68 1.68 0 0 0-.656.608c-.158.257-.238.55-.238.88v4.618h-1.121Zm11.498.152c-.609 0-1.146-.154-1.611-.461-.466-.31-.83-.748-1.093-1.311-.263-.567-.394-1.237-.394-2.01 0-.767.131-1.432.394-1.996.263-.564.629-1 1.098-1.307.468-.307 1.01-.46 1.625-.46.475 0 .85.078 1.126.237.279.155.491.332.636.532.149.197.265.358.347.485h.095v-3.592h1.122v9.73h-1.084v-1.12h-.133a7.05 7.05 0 0 1-.351.503c-.152.2-.369.379-.651.537-.282.155-.658.233-1.126.233Zm.152-1.008c.45 0 .83-.117 1.14-.351.311-.238.547-.566.708-.984.162-.421.242-.907.242-1.458 0-.545-.079-1.022-.237-1.43-.159-.412-.393-.732-.703-.96-.311-.232-.694-.347-1.15-.347-.475 0-.871.122-1.188.366-.314.24-.55.568-.708.983a3.915 3.915 0 0 0-.233 1.388c0 .52.079.991.238 1.416.161.42.399.757.712 1.007.317.247.71.37 1.179.37Zm7.55 1.027a2.97 2.97 0 0 1-1.259-.261 2.162 2.162 0 0 1-.898-.766c-.222-.335-.333-.74-.333-1.216 0-.418.083-.757.247-1.017.165-.263.385-.469.661-.617.275-.15.579-.26.912-.333.336-.076.673-.136 1.012-.18.444-.058.803-.1 1.079-.129.279-.032.481-.084.608-.157.13-.072.195-.2.195-.38v-.038c0-.469-.129-.833-.385-1.093-.254-.26-.638-.39-1.155-.39-.535 0-.955.118-1.259.352-.304.235-.518.485-.641.751l-1.065-.38c.19-.444.444-.789.76-1.036a2.87 2.87 0 0 1 1.046-.523c.38-.101.754-.152 1.121-.152.235 0 .504.029.808.086a2.6 2.6 0 0 1 .889.337c.288.171.527.43.717.775.19.345.285.807.285 1.387v4.809h-1.121v-.989h-.057a1.98 1.98 0 0 1-.38.509c-.178.18-.414.334-.708.46-.295.128-.655.19-1.079.19Zm.171-1.007c.444 0 .817-.088 1.121-.262a1.77 1.77 0 0 0 .694-.675c.159-.275.238-.565.238-.87V68.59c-.048.057-.152.109-.314.156a5.294 5.294 0 0 1-.551.12 25.062 25.062 0 0 1-1.074.142 4.32 4.32 0 0 0-.817.185c-.25.082-.453.208-.608.375-.152.165-.228.39-.228.675 0 .39.144.684.432.884.291.196.66.295 1.107.295Zm5.682 3.573c-.19 0-.36-.016-.509-.048a1.33 1.33 0 0 1-.308-.085l.285-.989c.272.07.513.095.722.076a.867.867 0 0 0 .556-.28c.165-.165.315-.432.451-.803l.209-.57-2.699-7.337h1.217l2.014 5.816h.076l2.015-5.816h1.217l-3.098 8.363c-.14.377-.313.69-.518.936a1.94 1.94 0 0 1-.718.556 2.21 2.21 0 0 1-.912.18Z"/><path fill="#3398F6" d="m195.493 42.687 2.759-4.779h-5.518l2.759 4.779Zm-.478-9.685v5.384h.955v-5.384h-.955Z"/></svg>