<svg xmlns="http://www.w3.org/2000/svg" width="239" height="248" fill="none"><path fill="#fff" d="M0 .105h238.938v247.54H0z"/><rect width="34.504" height="14.026" x="190.281" y="209.855" fill="#3398F6" rx="7.013"/><g filter="url(#a)"><circle cx="215.642" cy="216.869" r="10.552" fill="#fff"/></g><path fill="#001726" d="M11.486 185.987v-4.444l.02-.487a3.78 3.78 0 0 1-.727.516 2.966 2.966 0 0 1-.822.306l-.172-1.109a1.78 1.78 0 0 0 .488-.124 4.883 4.883 0 0 0 1.07-.602c.16-.122.28-.243.363-.364h1.07v6.308h-1.29Zm4.846.096c-.809 0-1.434-.274-1.873-.822-.433-.548-.65-1.357-.65-2.428 0-1.07.217-1.879.65-2.427.44-.548 1.064-.822 1.873-.822.81 0 1.43.274 1.864.822.44.548.66 1.357.66 2.427 0 1.071-.22 1.88-.66 2.428-.433.548-1.055.822-1.864.822Zm0-1.061c.274 0 .497-.076.67-.229.178-.16.311-.399.4-.717.09-.325.134-.739.134-1.243 0-.503-.044-.914-.133-1.233-.09-.325-.223-.563-.402-.716-.172-.16-.395-.239-.669-.239s-.5.079-.678.239c-.179.153-.313.391-.402.716-.083.319-.124.73-.124 1.233 0 .504.041.918.124 1.243.09.318.223.557.402.717.178.153.404.229.678.229Zm37.696.965v-4.444l.019-.487a3.777 3.777 0 0 1-.727.516 2.966 2.966 0 0 1-.822.306l-.172-1.109a1.78 1.78 0 0 0 .488-.124 4.873 4.873 0 0 0 1.07-.602c.16-.122.28-.243.363-.364h1.07v6.308h-1.29Zm3.689 0v-4.444l.02-.487a3.78 3.78 0 0 1-.727.516 2.966 2.966 0 0 1-.822.306l-.172-1.109a1.78 1.78 0 0 0 .487-.124 4.883 4.883 0 0 0 1.07-.602c.16-.122.281-.243.364-.364h1.07v6.308h-1.29Zm39.032 0v-4.444l.019-.487a3.774 3.774 0 0 1-.727.516 2.966 2.966 0 0 1-.821.306l-.172-1.109a1.78 1.78 0 0 0 .487-.124 4.873 4.873 0 0 0 1.07-.602c.16-.122.28-.243.364-.364h1.07v6.308h-1.29Zm2.428 0v-.889a24.759 24.759 0 0 0 1.452-1.051c.402-.318.723-.612.966-.879a3.04 3.04 0 0 0 .535-.774c.115-.242.172-.485.172-.727 0-.293-.089-.532-.268-.717-.178-.191-.43-.286-.755-.286-.357 0-.637.121-.841.363-.197.242-.306.586-.325 1.032l-1.137-.43c.032-.433.146-.8.344-1.099.204-.306.478-.538.822-.698.35-.165.752-.248 1.204-.248.389 0 .723.054 1.004.162.286.109.522.258.707.449.191.185.334.399.43.641.096.242.143.494.143.755 0 .408-.102.793-.305 1.156-.198.363-.504.723-.918 1.08-.414.357-.94.733-1.577 1.128v.01a12.701 12.701 0 0 1 .774-.029c.147-.006.274-.01.382-.01h1.74v1.061h-4.55Zm39.157 0v-4.444l.019-.487a3.744 3.744 0 0 1-.726.516 2.975 2.975 0 0 1-.822.306l-.172-1.109a1.77 1.77 0 0 0 .487-.124 4.902 4.902 0 0 0 1.071-.602c.159-.122.28-.243.363-.364h1.071v6.308h-1.291Zm4.645.096c-.63 0-1.169-.131-1.615-.392a2.065 2.065 0 0 1-.908-1.147l1.243-.545c.044.23.118.421.219.574a.968.968 0 0 0 .411.334c.179.077.389.115.631.115.217 0 .398-.038.545-.115a.826.826 0 0 0 .354-.325.928.928 0 0 0 .124-.478.859.859 0 0 0-.115-.468.578.578 0 0 0-.325-.258 1.538 1.538 0 0 0-.554-.086c-.083 0-.163.003-.239.01-.07 0-.15.006-.239.019v-.966l.153.02h.172c.357 0 .612-.071.765-.211.159-.146.239-.379.239-.697 0-.262-.08-.462-.239-.603-.153-.146-.373-.219-.66-.219-.306 0-.548.076-.726.229-.179.147-.303.373-.373.679l-1.176-.44c.077-.319.223-.593.44-.822.223-.229.497-.405.822-.526a2.944 2.944 0 0 1 1.08-.191c.472 0 .863.073 1.176.22.318.147.557.347.716.602.166.255.249.548.249.879 0 .262-.042.485-.124.669a1.453 1.453 0 0 1-.688.736 1.188 1.188 0 0 1-.373.115v.029c.146.006.296.038.449.095a1.273 1.273 0 0 1 .745.66c.083.165.125.363.125.592 0 .383-.102.72-.306 1.013-.198.287-.468.51-.813.669a2.89 2.89 0 0 1-1.185.23Zm37.896-.096v-4.444l.019-.487a3.744 3.744 0 0 1-.726.516 2.975 2.975 0 0 1-.822.306l-.172-1.109a1.77 1.77 0 0 0 .487-.124 4.902 4.902 0 0 0 1.071-.602c.159-.122.28-.243.363-.364h1.071v6.308h-1.291Zm5.305 0v-1.481h-3.078v-.86a2.75 2.75 0 0 1 .134-.23c.064-.095.134-.204.21-.325l2.352-3.412h1.577v3.871h1.022v.956h-1.022v1.481h-1.195Zm-1.95-2.437h1.959v-2.083c0-.134.004-.278.01-.43l.019-.45h-.019c-.07.14-.156.293-.258.459-.096.159-.185.303-.268.43l-1.319 1.893a.876.876 0 0 1-.067.095 1.07 1.07 0 0 0-.057.086ZM24.414 27.354h-2.187l-.841-2.462h-3.869l-.841 2.462H14.52l3.685-10.093h2.523l3.686 10.093Zm-6.423-4.022h2.92l-1.467-4.404-1.453 4.404Zm11.59-3.625h2.172l-2.905 7.646h-2.416l-2.906-7.646h2.233l1.896 6.04 1.927-6.04Zm6.332 7.8c-.805 0-1.509-.159-2.11-.475a3.34 3.34 0 0 1-1.376-1.36c-.327-.592-.49-1.306-.49-2.142 0-.835.163-1.55.49-2.14a3.365 3.365 0 0 1 1.36-1.361c.592-.316 1.265-.474 2.02-.474.774 0 1.432.158 1.972.474.54.305.953.729 1.238 1.269.286.53.429 1.137.429 1.82 0 .204-.005.397-.016.58-.01.184-.025.347-.045.49h-6.102v-1.453h5.184l-1.01.367c0-.642-.147-1.136-.443-1.483-.285-.347-.693-.52-1.223-.52-.387 0-.724.092-1.01.275-.275.184-.484.46-.626.826-.143.357-.214.81-.214 1.361 0 .54.076.989.229 1.346.163.346.387.606.673.78.295.173.647.26 1.055.26.448 0 .81-.087 1.086-.26a1.76 1.76 0 0 0 .642-.719l1.667.642c-.163.398-.413.74-.75 1.025a3.394 3.394 0 0 1-1.177.657 4.764 4.764 0 0 1-1.453.214Zm4.85-.154v-7.646h1.82l.137 1.5c.204-.531.5-.939.887-1.224.397-.286.892-.428 1.483-.428.173 0 .331.015.474.046.143.03.26.07.352.122l-.245 1.758a1.617 1.617 0 0 0-.382-.091 4.17 4.17 0 0 0-.566-.031c-.306 0-.602.076-.887.23a1.71 1.71 0 0 0-.703.672c-.184.296-.276.673-.276 1.132v3.96h-2.095Zm10.216-4.878c0-.438-.128-.78-.383-1.024-.244-.245-.57-.367-.978-.367-.377 0-.709.097-.994.29-.286.194-.495.515-.627.964l-1.79-.55a2.77 2.77 0 0 1 1.132-1.622c.592-.407 1.382-.611 2.37-.611.673 0 1.26.107 1.76.32a2.47 2.47 0 0 1 1.161.933c.286.419.428.944.428 1.576v3.104c0 .387.184.581.551.581.173 0 .336-.025.49-.076l-.123 1.3c-.265.132-.596.198-.994.198-.357 0-.678-.061-.963-.183a1.495 1.495 0 0 1-.673-.55c-.163-.256-.245-.572-.245-.949v-.061l.367-.061a1.76 1.76 0 0 1-.505.994 2.793 2.793 0 0 1-1.009.611c-.387.143-.79.214-1.208.214-.52 0-.968-.076-1.346-.229a1.941 1.941 0 0 1-.871-.703c-.204-.306-.306-.683-.306-1.132 0-.57.183-1.035.55-1.392.367-.367.892-.616 1.575-.749l2.875-.581-.015 1.3-1.835.367c-.346.071-.612.168-.795.29-.173.113-.26.301-.26.566 0 .255.092.449.275.581.194.133.423.2.688.2.214 0 .423-.026.627-.077.204-.051.388-.133.55-.245a1.13 1.13 0 0 0 .383-.459 1.63 1.63 0 0 0 .138-.703v-2.065Zm11.073-4.587.245 1.498h-.138a.569.569 0 0 0-.137-.015c-.47 0-.821.107-1.056.321-.234.204-.351.49-.351.857l-.857-.352c0-.408.082-.785.245-1.132.163-.357.403-.642.719-.856.326-.214.713-.321 1.162-.321h.168Zm-2.508 8.028c.826 0 1.463.178 1.912.535.448.357.673.857.673 1.499 0 .581-.169 1.07-.505 1.468-.337.408-.81.714-1.422.918-.602.203-1.3.305-2.095.305-1.315 0-2.279-.183-2.89-.55-.602-.367-.903-.846-.903-1.438 0-.418.158-.77.474-1.055.327-.285.862-.443 1.606-.474l-.076.245c-.53-.092-.938-.265-1.224-.52-.275-.265-.413-.627-.413-1.086 0-.469.179-.851.536-1.147.367-.306.861-.484 1.483-.535l.917.428h-.214c-.438.03-.749.122-.932.276-.174.142-.26.305-.26.489 0 .214.081.377.244.49.174.101.418.152.734.152h2.355Zm-1.422 3.288c.53 0 .964-.046 1.3-.138.347-.091.601-.209.765-.351.173-.143.26-.301.26-.474a.58.58 0 0 0-.23-.475c-.153-.112-.428-.168-.826-.168h-2.584a.99.99 0 0 0-.612.184.61.61 0 0 0-.23.504c0 .286.19.51.567.673.387.163.917.245 1.59.245Zm.015-9.65c.714 0 1.33.108 1.85.322.53.204.933.5 1.209.887.285.387.428.85.428 1.391 0 .53-.143.99-.428 1.377-.276.387-.678.688-1.208.902-.52.204-1.137.306-1.85.306-1.132 0-1.999-.23-2.6-.689-.592-.469-.887-1.1-.887-1.896 0-.54.137-1.004.413-1.391.285-.388.688-.683 1.208-.887.52-.214 1.142-.321 1.865-.321Zm0 1.316c-.407 0-.744.112-1.009.336-.265.224-.398.535-.398.933s.133.714.398.948c.265.224.602.337 1.01.337.407 0 .739-.113.993-.337.265-.234.398-.55.398-.948 0-.398-.133-.709-.398-.933-.255-.224-.586-.336-.994-.336Zm8.347 6.636c-.805 0-1.509-.158-2.11-.474a3.34 3.34 0 0 1-1.376-1.36c-.327-.592-.49-1.306-.49-2.142 0-.835.163-1.55.49-2.14a3.365 3.365 0 0 1 1.36-1.361c.592-.316 1.265-.474 2.02-.474.774 0 1.431.158 1.972.474.54.305.953.729 1.239 1.269.285.53.428 1.137.428 1.82 0 .204-.005.397-.016.58-.01.184-.025.347-.046.49h-6.101v-1.453h5.184l-1.01.367c0-.642-.147-1.136-.443-1.483-.285-.347-.693-.52-1.223-.52-.388 0-.724.092-1.01.275-.275.184-.484.46-.626.826-.143.357-.215.81-.215 1.361 0 .54.077.989.23 1.346.163.346.387.606.673.78.295.173.647.26 1.055.26.448 0 .81-.087 1.086-.26.275-.174.489-.413.642-.719l1.667.642c-.163.398-.413.74-.75 1.025a3.393 3.393 0 0 1-1.177.657 4.764 4.764 0 0 1-1.453.214Zm11.592-10.138v7.493c0 .367.092.637.276.81.193.163.453.245.78.245.254 0 .479-.036.672-.107.194-.082.367-.189.52-.321l.337 1.392a2.77 2.77 0 0 1-.918.458 3.954 3.954 0 0 1-1.162.168 3.77 3.77 0 0 1-1.361-.229 1.923 1.923 0 0 1-.918-.734c-.214-.336-.32-.785-.32-1.346V17.95l2.094-.581Zm2.447 2.34v1.56h-5.949v-1.56h5.949Zm2.014-1.101c-.439 0-.765-.092-.979-.276-.214-.194-.321-.474-.321-.84 0-.378.107-.658.321-.842.214-.194.54-.29.979-.29.438 0 .764.096.978.29.215.184.322.464.322.841 0 .367-.108.648-.322.841-.214.184-.54.276-.978.276Zm1.04 1.1v7.646h-2.095v-7.646h2.095Zm1.762 7.646v-7.646h1.88l.077 1.377c.255-.51.601-.892 1.04-1.147a2.95 2.95 0 0 1 1.483-.382 2.9 2.9 0 0 1 1.484.382c.448.255.785.632 1.009 1.131a2.44 2.44 0 0 1 .657-.84c.276-.225.582-.393.918-.505a3.219 3.219 0 0 1 1.025-.168 3 3 0 0 1 1.36.305c.418.204.75.51.994.918.245.408.367.928.367 1.56v5.015h-2.095v-4.602c0-.561-.122-.959-.367-1.193-.244-.235-.56-.352-.948-.352-.305 0-.591.077-.856.23a1.62 1.62 0 0 0-.612.688c-.142.295-.214.667-.214 1.116v4.114h-2.095V22.75c0-.561-.127-.959-.382-1.193-.245-.235-.56-.352-.948-.352-.265 0-.53.072-.795.214-.255.143-.47.367-.643.673-.163.306-.244.709-.244 1.208v4.053h-2.095Zm17.544.153c-.805 0-1.508-.158-2.11-.474a3.342 3.342 0 0 1-1.376-1.36c-.326-.592-.49-1.306-.49-2.142 0-.835.164-1.55.49-2.14a3.366 3.366 0 0 1 1.361-1.361c.591-.316 1.264-.474 2.018-.474.775 0 1.433.158 1.973.474a3.1 3.1 0 0 1 1.239 1.269c.285.53.428 1.137.428 1.82 0 .204-.005.397-.015.58a6.287 6.287 0 0 1-.046.49h-6.102v-1.453h5.184l-1.009.367c0-.642-.148-1.136-.444-1.483-.285-.347-.693-.52-1.223-.52-.387 0-.724.092-1.009.275-.275.184-.484.46-.627.826-.143.357-.214.81-.214 1.361 0 .54.076.989.229 1.346.163.346.388.606.673.78.296.173.647.26 1.055.26.449 0 .811-.087 1.086-.26a1.76 1.76 0 0 0 .642-.719l1.667.642c-.163.398-.413.74-.749 1.025a3.4 3.4 0 0 1-1.178.657 4.763 4.763 0 0 1-1.453.214Zm120.534 158.481v-4.444l.019-.487a3.806 3.806 0 0 1-.726.516 2.975 2.975 0 0 1-.822.306l-.172-1.109a1.78 1.78 0 0 0 .487-.124 4.902 4.902 0 0 0 1.07-.602c.16-.122.281-.243.364-.364h1.07v6.308h-1.29Zm4.54.096c-.555 0-1.023-.115-1.405-.344-.376-.23-.685-.58-.927-1.052l1.185-.592c.083.28.213.506.392.678.178.173.439.259.783.259.236 0 .437-.042.603-.125a.882.882 0 0 0 .382-.363 1.12 1.12 0 0 0 .143-.583c0-.229-.044-.42-.134-.573a.77.77 0 0 0-.363-.354 1.295 1.295 0 0 0-.602-.124c-.166 0-.322.016-.468.048-.14.031-.268.082-.383.152-.114.064-.216.15-.305.259l-1.033-.192.392-3.498h3.814v1.061h-2.82l-.191 1.539-.029.124h.02c.133-.153.315-.271.544-.353.236-.083.504-.125.803-.125.414 0 .768.083 1.061.249.293.166.519.398.679.698.159.293.239.63.239 1.013 0 .363-.061.685-.182.965a1.851 1.851 0 0 1-.516.688 2.335 2.335 0 0 1-.755.411 3.114 3.114 0 0 1-.927.134ZM193.834 26.575c-.678 0-1.298-.12-1.86-.361a3.454 3.454 0 0 1-1.351-1.017l1.057-1.07c.214.32.499.584.856.789.357.205.781.308 1.271.308.348 0 .625-.05.83-.147.214-.108.321-.273.321-.496a.492.492 0 0 0-.147-.36c-.098-.108-.295-.192-.589-.255l-1.177-.24c-.776-.161-1.329-.402-1.66-.723-.321-.33-.481-.754-.481-1.271 0-.366.107-.71.321-1.03.223-.322.553-.58.99-.777.437-.205.981-.308 1.632-.308.669 0 1.249.107 1.74.322a2.59 2.59 0 0 1 1.177.923l-1.097 1.07a1.914 1.914 0 0 0-.776-.709 2.044 2.044 0 0 0-.99-.254c-.25 0-.464.026-.642.08a.87.87 0 0 0-.402.227.47.47 0 0 0-.133.348.48.48 0 0 0 .187.375c.125.098.352.183.682.254l1.365.281c.66.134 1.133.362 1.418.683.286.312.429.691.429 1.137 0 .428-.116.812-.348 1.15-.223.33-.558.594-1.004.79-.437.188-.977.281-1.619.281Zm6.399-8.871v6.556c0 .321.081.558.241.71.17.142.397.214.683.214.223 0 .419-.032.588-.094a1.69 1.69 0 0 0 .455-.281l.295 1.218a2.42 2.42 0 0 1-.803.401 3.46 3.46 0 0 1-1.017.147 3.32 3.32 0 0 1-1.191-.2 1.681 1.681 0 0 1-.803-.643c-.187-.294-.281-.687-.281-1.177v-6.343l1.833-.508Zm2.141 2.047v1.365h-5.205v-1.365h5.205Zm3.943 6.824c-.704 0-1.32-.138-1.846-.415a2.915 2.915 0 0 1-1.204-1.19c-.286-.518-.429-1.142-.429-1.874 0-.731.143-1.356.429-1.873a2.942 2.942 0 0 1 1.19-1.19c.518-.277 1.107-.416 1.767-.416.678 0 1.253.139 1.726.415.472.268.834.638 1.084 1.11.249.465.374.995.374 1.593 0 .178-.004.348-.013.509-.009.16-.022.303-.04.428h-5.339V22.4h4.536l-.883.32c0-.561-.13-.994-.388-1.297-.25-.304-.607-.455-1.071-.455-.339 0-.633.08-.883.24-.241.161-.424.402-.548.723-.125.312-.188.71-.188 1.191 0 .473.067.865.201 1.177.143.304.339.531.589.683.258.152.566.227.923.227.392 0 .709-.075.95-.227.241-.152.428-.361.562-.629l1.458.562a2.308 2.308 0 0 1-.655.896c-.286.25-.629.442-1.031.576a4.167 4.167 0 0 1-1.271.187Zm4.243 2.676v-9.5h1.646l.121 2.128-.228-.241c.08-.393.228-.74.442-1.044.223-.303.504-.54.843-.71a2.404 2.404 0 0 1 1.137-.267c.544 0 1.03.139 1.458.415.429.277.763.674 1.004 1.191.25.509.375 1.128.375 1.86 0 .731-.125 1.36-.375 1.887-.25.517-.593.914-1.03 1.19a2.656 2.656 0 0 1-1.472.415c-.589 0-1.08-.165-1.472-.495a2.515 2.515 0 0 1-.79-1.244l.174-.281v4.696h-1.833Zm3.386-4.08c.49 0 .874-.175 1.15-.523.286-.356.428-.874.428-1.552s-.138-1.19-.414-1.538c-.268-.357-.647-.536-1.138-.536-.312 0-.588.085-.829.255-.232.16-.415.396-.549.709-.134.303-.201.673-.201 1.11 0 .428.063.799.188 1.11a1.6 1.6 0 0 0 .535.723c.241.161.517.241.83.241Zm7.278 1.404c-.678 0-1.298-.12-1.86-.361a3.446 3.446 0 0 1-1.351-1.017l1.057-1.07c.214.32.499.584.856.789.357.205.781.308 1.271.308.348 0 .625-.05.83-.147.214-.108.321-.273.321-.496a.492.492 0 0 0-.147-.36c-.098-.108-.295-.192-.589-.255l-1.178-.24c-.776-.161-1.329-.402-1.659-.723-.321-.33-.481-.754-.481-1.271 0-.366.107-.71.321-1.03.223-.322.553-.58.99-.777.437-.205.981-.308 1.632-.308.669 0 1.249.107 1.74.322a2.59 2.59 0 0 1 1.177.923l-1.097 1.07a1.914 1.914 0 0 0-.776-.709 2.044 2.044 0 0 0-.99-.254c-.25 0-.464.026-.642.08a.864.864 0 0 0-.402.227.472.472 0 0 0-.134.348c0 .143.063.268.188.375.125.098.352.183.682.254l1.365.281c.66.134 1.133.362 1.418.683.286.312.428.691.428 1.137 0 .428-.116.812-.347 1.15-.223.33-.558.594-1.004.79-.437.188-.977.281-1.619.281Z"/><path stroke="#B1B1B1" stroke-width=".478" d="M14.203 168.9V45.591M141.254 168.9V45.591M56.553 168.9V45.591" opacity=".5"/><path stroke="#B1B1B1" stroke-width=".478" d="M183.605 168.9V45.591"/><path stroke="#B1B1B1" stroke-width=".478" d="M98.904 168.9V45.591M225.956 168.9V45.591" opacity=".5"/><path fill="url(#b)" d="M14.23 64.963V167.59h211.464V84.443c-4.588-6.493-14.89-20.334-19.394-23.752-5.631-4.272-7.508 6.745-16.892 23.752-7.508 13.606-16.058 5.67-19.395 0l-16.266-10.117c-3.337 5.386-11.012 13.748-15.016 4.106s-13.764-12.997-18.143-13.469c-5.346 4.05-17.829 13.615-24.991 19.48C86.643 91.774 83.77 83.71 76 74.326c-7.77-9.383-16.217 1.907-21.454 4.106-5.237 2.2-10.474-8.504-11.656-10.996-1.183-2.493-8.11.733-11.657 0-2.838-.587-3.881-8.029-7.861-7.645l-9.141 5.172Z"/><path stroke="#3398F6" stroke-width=".956" d="m14.23 64.963 9.142-5.172c3.98-.384 5.023 7.058 7.861 7.645 3.548.733 10.474-2.493 11.657 0 1.182 2.492 6.42 13.195 11.656 10.996 5.237-2.2 13.684-13.489 21.454-4.106 7.771 9.384 10.643 17.448 19.597 10.117 7.162-5.865 19.645-15.43 24.991-19.48 4.379.472 14.139 3.827 18.143 13.469 4.004 9.641 11.679 1.28 15.016-4.106l16.266 10.117c3.337 5.67 11.887 13.606 19.395 0 9.384-17.007 11.261-28.024 16.892-23.752 4.504 3.418 14.806 17.259 19.394 23.752"/><path fill="#fff" d="M141.498 38.791h41.915V168.9h-41.915z" opacity=".5"/><path fill="#001726" d="M151.394 62.544v-1.042l2.612-4.114h.898v1.442h-.532l-1.646 2.605v.049h3.711v1.06h-5.043Zm3.002 1.1v-1.418l.025-.461v-4.377h1.24v6.256h-1.265Zm5.207.085c-.432 0-.817-.08-1.155-.238a2.012 2.012 0 0 1-.8-.657 1.69 1.69 0 0 1-.308-.96h1.283a.78.78 0 0 0 .305.59c.189.151.414.227.675.227.208 0 .391-.046.55-.138a.986.986 0 0 0 .376-.388 1.18 1.18 0 0 0 .137-.574c0-.22-.047-.413-.14-.58a.996.996 0 0 0-.382-.392 1.126 1.126 0 0 0-.559-.143c-.184 0-.362.038-.535.113a.967.967 0 0 0-.4.309l-1.176-.211.296-3.3h3.825v1.082h-2.734l-.162 1.567h.037c.11-.155.275-.283.497-.385a1.77 1.77 0 0 1 .746-.153c.377 0 .713.089 1.008.266.295.177.528.42.699.73.171.308.256.662.254 1.063a2.12 2.12 0 0 1-.293 1.124 2.07 2.07 0 0 1-.822.77c-.35.185-.758.278-1.222.278Zm5.712.052c-.525-.002-.977-.131-1.356-.388-.377-.257-.667-.628-.871-1.115-.201-.487-.301-1.072-.299-1.756 0-.682.101-1.264.302-1.744.204-.481.494-.847.871-1.097.379-.252.83-.379 1.353-.379.524 0 .974.127 1.35.379.379.253.67.619.874 1.1.204.478.304 1.059.302 1.74 0 .687-.101 1.273-.305 1.76-.202.487-.491.858-.868 1.115-.376.257-.827.385-1.353.385Zm0-1.097c.359 0 .645-.18.859-.54.213-.36.319-.901.317-1.622 0-.475-.049-.87-.146-1.185-.096-.316-.233-.553-.41-.712a.893.893 0 0 0-.62-.238c-.356 0-.641.178-.855.534-.214.357-.322.89-.324 1.6 0 .481.048.883.144 1.204.097.32.235.56.412.721a.903.903 0 0 0 .623.238Zm5.922 1.097c-.525-.002-.977-.131-1.356-.388-.377-.257-.667-.628-.871-1.115-.201-.487-.301-1.072-.299-1.756 0-.682.101-1.264.303-1.744.203-.481.493-.847.87-1.097.379-.252.83-.379 1.353-.379.524 0 .974.127 1.35.379.379.253.67.619.874 1.1.204.478.304 1.059.302 1.74 0 .687-.101 1.273-.305 1.76-.202.487-.491.858-.868 1.115-.376.257-.827.385-1.353.385Zm0-1.097c.359 0 .645-.18.859-.54.213-.36.319-.901.317-1.622 0-.475-.049-.87-.146-1.185-.096-.316-.232-.553-.41-.712a.891.891 0 0 0-.62-.238c-.356 0-.641.178-.855.534-.214.357-.322.89-.324 1.6 0 .481.048.883.144 1.204.098.32.235.56.412.721a.903.903 0 0 0 .623.238Z"/><circle cx="165.052" cy="80.783" r="6.153" fill="#3398F6" stroke="#fff" stroke-width="2.867"/><path fill="#001726" d="M17.246 207.378c.574 0 1.077.098 1.51.296.433.198.803.491 1.109.879l-.736.851c-.261-.331-.548-.574-.86-.726a2.277 2.277 0 0 0-1.07-.239 1.85 1.85 0 0 0-.67.105.85.85 0 0 0-.382.277.675.675 0 0 0-.115.382c0 .172.067.319.201.44.134.115.363.21.688.287l1.176.267c.624.14 1.07.351 1.338.631.274.274.41.631.41 1.07 0 .415-.107.771-.324 1.071-.217.293-.52.519-.908.678-.389.153-.835.23-1.338.23-.44 0-.844-.051-1.214-.153a3.767 3.767 0 0 1-.975-.44 2.917 2.917 0 0 1-.717-.64l.746-.889c.146.204.328.386.545.545.216.159.462.287.735.382.28.089.574.134.88.134.261 0 .48-.029.66-.086a.9.9 0 0 0 .41-.258.623.623 0 0 0 .144-.411.573.573 0 0 0-.172-.421c-.109-.121-.313-.213-.612-.277l-1.28-.287a4.124 4.124 0 0 1-.957-.344 1.634 1.634 0 0 1-.602-.554 1.59 1.59 0 0 1-.2-.812c0-.376.102-.714.306-1.013.203-.3.497-.536.879-.708.388-.178.854-.267 1.395-.267Zm5.644 6.499c-.503 0-.943-.099-1.319-.296a2.094 2.094 0 0 1-.86-.851c-.204-.37-.306-.816-.306-1.338 0-.523.102-.969.306-1.338a2.11 2.11 0 0 1 .85-.851 2.64 2.64 0 0 1 1.262-.296c.485 0 .896.099 1.233.296.338.191.596.456.775.793.178.332.267.711.267 1.138 0 .127-.003.248-.01.363a3.57 3.57 0 0 1-.028.306h-3.813v-.908h3.24l-.631.229c0-.401-.093-.71-.278-.927-.178-.216-.433-.325-.764-.325a1.14 1.14 0 0 0-.63.172 1.06 1.06 0 0 0-.393.516c-.089.223-.134.507-.134.851 0 .338.048.618.144.841.102.217.242.379.42.487.185.109.405.163.66.163.28 0 .506-.054.678-.163.172-.108.306-.258.402-.449l1.042.402a1.651 1.651 0 0 1-.469.64 2.133 2.133 0 0 1-.736.411c-.28.089-.583.134-.908.134Zm4.639-6.337v4.683c0 .23.057.399.172.507.12.102.283.153.487.153.16 0 .3-.022.42-.067.122-.051.23-.118.326-.201l.21.87a1.728 1.728 0 0 1-.573.287c-.23.07-.472.105-.727.105-.318 0-.602-.048-.85-.144a1.198 1.198 0 0 1-.574-.458c-.134-.211-.2-.491-.2-.841v-4.531l1.309-.363Zm1.529 1.462v.975H25.34v-.975h3.718Zm5.805-1.529c.987 0 1.752.274 2.294.822.541.542.812 1.319.812 2.332 0 1.007-.27 1.784-.812 2.332-.542.548-1.307.822-2.294.822h-2.437v-6.308h2.437Zm-.067 5.257c.599 0 1.048-.178 1.348-.535.305-.363.458-.886.458-1.568s-.153-1.201-.458-1.558c-.3-.363-.75-.544-1.348-.544h-1.051v4.205h1.05Zm6.765-1.998c0-.274-.08-.487-.239-.64-.153-.153-.357-.229-.611-.229-.236 0-.443.06-.622.181-.178.121-.309.322-.392.602l-1.118-.344c.108-.42.344-.758.707-1.013.37-.255.864-.382 1.482-.382.42 0 .787.067 1.099.201.312.127.554.321.726.583.179.261.268.589.268.984v1.94c0 .242.115.363.344.363a.99.99 0 0 0 .306-.047l-.077.812a1.381 1.381 0 0 1-.62.124c-.224 0-.425-.038-.603-.114a.944.944 0 0 1-.42-.344 1.08 1.08 0 0 1-.153-.593v-.038l.229-.039c-.038.243-.143.45-.316.622a1.75 1.75 0 0 1-.63.382 2.172 2.172 0 0 1-.755.134c-.325 0-.606-.048-.841-.144a1.207 1.207 0 0 1-.545-.439 1.246 1.246 0 0 1-.191-.707c0-.357.114-.647.344-.87.23-.23.557-.386.984-.468l1.797-.364-.01.813-1.146.229a1.426 1.426 0 0 0-.497.182c-.109.07-.163.188-.163.353 0 .16.057.281.172.363a.742.742 0 0 0 .43.125c.134 0 .265-.016.392-.048s.242-.083.344-.153a.707.707 0 0 0 .24-.287c.056-.121.085-.267.085-.439v-1.291Zm3.137-2.418c-.274 0-.478-.057-.612-.172-.133-.121-.2-.296-.2-.525 0-.236.067-.411.2-.526.134-.121.338-.182.612-.182.274 0 .478.061.612.182.133.115.2.29.2.526 0 .229-.066.404-.2.525-.134.115-.338.172-.612.172Zm.65.688v4.779h-1.31v-4.779h1.31Zm2.392-2.093v5.4c0 .223.038.38.114.469.077.089.204.134.383.134a1.5 1.5 0 0 0 .267-.02c.07-.019.16-.044.268-.076l-.115.86a1.264 1.264 0 0 1-.41.143c-.16.039-.32.058-.479.058-.465 0-.806-.112-1.023-.335-.21-.229-.315-.592-.315-1.089v-5.544h1.31Zm5.77 2.093-1.93 5.076c-.153.433-.325.777-.516 1.032a1.67 1.67 0 0 1-.65.554 2.013 2.013 0 0 1-.87.172c-.248 0-.478-.032-.688-.095a2.062 2.062 0 0 1-.535-.23l.277-.946c.121.096.248.162.382.201.134.044.287.067.46.067a.88.88 0 0 0 .458-.115c.134-.077.245-.229.334-.459l.163-.411-.526-1.242-1.462-3.604h1.453l.908 2.868.248.955.296-1.013.87-2.81h1.329Zm5.765-1.529c.714 0 1.274.172 1.682.516.408.344.612.806.612 1.386 0 .618-.204 1.093-.612 1.424-.408.325-.965.488-1.672.488l-.134.076h-1.357v2.418h-1.3v-6.308h2.781Zm-.153 2.887c.37 0 .644-.074.822-.22.185-.153.277-.386.277-.698 0-.312-.092-.541-.277-.688-.178-.153-.452-.229-.822-.229h-1.328v1.835h1.328Zm.774.277 2.045 3.144h-1.48l-1.693-2.762 1.128-.382Zm4.797 3.24c-.503 0-.943-.099-1.319-.296a2.095 2.095 0 0 1-.86-.851c-.204-.37-.306-.816-.306-1.338 0-.523.102-.969.306-1.338a2.11 2.11 0 0 1 .85-.851 2.64 2.64 0 0 1 1.262-.296c.485 0 .896.099 1.233.296.338.191.596.456.775.793.178.332.267.711.267 1.138 0 .127-.003.248-.01.363a3.566 3.566 0 0 1-.028.306H63.05v-.908h3.24l-.631.229c0-.401-.093-.71-.278-.927-.178-.216-.433-.325-.764-.325a1.14 1.14 0 0 0-.63.172 1.06 1.06 0 0 0-.393.516c-.089.223-.134.507-.134.851 0 .338.048.618.144.841.102.217.242.379.42.487.185.109.405.163.66.163.28 0 .506-.054.678-.163.172-.108.306-.258.402-.449l1.042.402a1.653 1.653 0 0 1-.469.64 2.133 2.133 0 0 1-.736.411c-.28.089-.583.134-.908.134Zm3.031-.096v-4.779H68.9l.047.861c.16-.319.376-.558.65-.717.28-.159.59-.239.927-.239.344 0 .653.08.927.239.28.159.491.395.631.707.102-.21.24-.385.411-.526a1.81 1.81 0 0 1 .574-.315c.21-.07.423-.105.64-.105.312 0 .596.064.85.191.262.127.469.319.622.574.153.254.23.579.23.974v3.135h-1.31v-2.877c0-.35-.077-.599-.23-.745a.82.82 0 0 0-.592-.22c-.191 0-.37.048-.535.143-.16.096-.287.239-.383.431-.089.184-.133.417-.133.697v2.571h-1.31v-2.877c0-.35-.08-.599-.239-.745a.82.82 0 0 0-.592-.22 1.04 1.04 0 0 0-.497.134c-.16.089-.293.229-.402.42-.102.192-.153.443-.153.756v2.532h-1.309Zm9.408-5.467c-.274 0-.478-.057-.612-.172-.134-.121-.2-.296-.2-.525 0-.236.066-.411.2-.526.134-.121.338-.182.612-.182.274 0 .477.061.611.182.134.115.201.29.201.526 0 .229-.067.404-.2.525-.135.115-.338.172-.612.172Zm.65.688v4.779h-1.31v-4.779h1.31Zm1.1 4.779v-4.779h1.176l.077 1.434-.163-.153c.077-.312.198-.57.364-.774a1.48 1.48 0 0 1 .602-.449 2.02 2.02 0 0 1 .793-.153c.331 0 .624.064.88.191.26.127.464.322.611.583.153.255.23.577.23.965v3.135h-1.31v-2.762c0-.408-.08-.688-.239-.841a.842.842 0 0 0-.621-.239c-.179 0-.354.045-.526.134a.984.984 0 0 0-.41.411c-.103.191-.154.446-.154.765v2.532h-1.31Zm7.438.096a1.94 1.94 0 0 1-1.06-.296 2.043 2.043 0 0 1-.727-.851c-.172-.37-.258-.812-.258-1.329 0-.528.092-.978.277-1.347.185-.376.433-.66.745-.851a1.995 1.995 0 0 1 1.07-.296c.421 0 .768.121 1.042.363s.453.554.536.937l-.124.153v-3.451h1.309v6.872h-1.176l-.086-1.452.163.076a1.78 1.78 0 0 1-.306.784 1.66 1.66 0 0 1-.602.506c-.242.121-.51.182-.803.182Zm.382-1.004c.23 0 .427-.057.593-.172.165-.121.293-.296.382-.525.096-.23.143-.504.143-.822a1.99 1.99 0 0 0-.133-.775 1.094 1.094 0 0 0-.383-.497 1.004 1.004 0 0 0-.583-.172c-.356 0-.637.128-.84.383-.198.248-.297.615-.297 1.099s.099.854.296 1.109c.198.248.472.372.822.372Zm5.734 1.004c-.503 0-.943-.099-1.319-.296a2.094 2.094 0 0 1-.86-.851c-.204-.37-.306-.816-.306-1.338 0-.523.102-.969.306-1.338a2.11 2.11 0 0 1 .85-.851 2.64 2.64 0 0 1 1.262-.296c.485 0 .896.099 1.233.296.338.191.596.456.774.793.179.332.268.711.268 1.138 0 .127-.003.248-.01.363a3.57 3.57 0 0 1-.028.306h-3.814v-.908h3.24l-.63.229c0-.401-.093-.71-.278-.927-.178-.216-.433-.325-.764-.325-.242 0-.453.058-.631.172a1.06 1.06 0 0 0-.392.516c-.089.223-.134.507-.134.851 0 .338.048.618.144.841.102.217.242.379.42.487.185.109.405.163.66.163.28 0 .506-.054.678-.163.172-.108.306-.258.402-.449l1.041.402a1.651 1.651 0 0 1-.468.64 2.133 2.133 0 0 1-.736.411c-.28.089-.583.134-.908.134Zm3.031-.096v-4.779h1.137l.086.937c.128-.331.313-.586.555-.764.248-.179.557-.268.927-.268.108 0 .207.009.296.029.09.019.163.044.22.076l-.153 1.099a1.05 1.05 0 0 0-.239-.057 2.568 2.568 0 0 0-.354-.019c-.19 0-.375.047-.554.143a1.064 1.064 0 0 0-.44.421c-.114.184-.172.42-.172.707v2.475h-1.309Z"/><path fill="#696969" d="M14.138 227.929v-6.256h2.114c.489 0 .89.083 1.203.25.314.165.546.392.697.682.15.289.226.618.226.986 0 .369-.076.696-.226.981a1.59 1.59 0 0 1-.694.672c-.311.161-.71.241-1.194.241h-1.71v-.684h1.686c.334 0 .602-.049.806-.147a.928.928 0 0 0 .446-.415 1.39 1.39 0 0 0 .14-.648c0-.25-.046-.469-.14-.657a.955.955 0 0 0-.449-.433c-.206-.104-.478-.156-.816-.156h-1.331v5.584h-.758Zm2.945-2.811 1.54 2.811h-.88l-1.516-2.811h.856Zm4.376 2.908c-.452 0-.842-.099-1.17-.299a2.008 2.008 0 0 1-.754-.843c-.175-.362-.263-.784-.263-1.265 0-.48.088-.904.263-1.27a2.07 2.07 0 0 1 .739-.862 1.991 1.991 0 0 1 1.112-.311c.244 0 .486.04.724.122.238.081.455.214.65.397.196.181.352.422.468.721.116.299.174.668.174 1.106v.305h-3.617v-.623h2.884a1.54 1.54 0 0 0-.16-.709 1.198 1.198 0 0 0-.445-.491 1.242 1.242 0 0 0-.678-.181c-.287 0-.536.072-.745.214a1.41 1.41 0 0 0-.48.55 1.614 1.614 0 0 0-.168.727v.415c0 .355.061.655.183.902.124.244.297.43.517.558.22.127.475.19.766.19.19 0 .36-.027.513-.08.155-.055.288-.136.4-.244.113-.11.199-.246.26-.409l.697.195a1.544 1.544 0 0 1-.37.623 1.794 1.794 0 0 1-.642.416c-.254.098-.54.146-.858.146Zm3.04-.097v-4.692h.696v.733h.061c.098-.251.256-.445.474-.583.217-.141.48-.211.785-.211.31 0 .567.07.772.211.208.138.37.332.486.583h.049c.12-.242.3-.435.54-.577.24-.145.529-.217.865-.217.42 0 .763.131 1.03.394.266.26.4.667.4 1.219v3.14h-.721v-3.14c0-.347-.095-.594-.284-.743a1.055 1.055 0 0 0-.67-.223c-.33 0-.585.1-.766.3-.181.197-.272.448-.272.751v3.055h-.733v-3.214a.842.842 0 0 0-.26-.644.93.93 0 0 0-.669-.248.987.987 0 0 0-.525.15c-.16.1-.291.238-.391.415a1.23 1.23 0 0 0-.147.608v2.933h-.72Zm7.476 0v-4.692h.72v4.692h-.72Zm.366-5.474a.512.512 0 0 1-.363-.144.459.459 0 0 1-.15-.345c0-.134.05-.249.15-.345a.512.512 0 0 1 .363-.144c.14 0 .26.048.36.144a.457.457 0 0 1 .153.345c0 .135-.05.25-.152.345a.501.501 0 0 1-.36.144Zm2.396 2.651v2.823h-.721v-4.692h.696v.733h.061c.11-.238.277-.43.501-.574.224-.147.514-.22.868-.22.318 0 .595.065.834.195.238.129.423.324.556.587.132.26.198.59.198.989v2.982h-.72v-2.933c0-.368-.096-.655-.288-.861-.191-.208-.454-.312-.788-.312-.23 0-.436.05-.617.15-.18.1-.32.245-.424.437a1.439 1.439 0 0 0-.156.696Zm6.082 2.92c-.39 0-.736-.098-1.035-.296a1.99 1.99 0 0 1-.703-.843c-.169-.364-.253-.795-.253-1.292 0-.493.084-.92.253-1.283a1.98 1.98 0 0 1 .706-.84c.301-.197.65-.296 1.044-.296.306 0 .547.051.724.152.18.1.316.214.41.343.095.126.17.23.223.311h.06v-2.309h.722v6.256h-.697v-.721h-.085a4.918 4.918 0 0 1-.226.324 1.35 1.35 0 0 1-.419.345c-.181.1-.422.149-.724.149Zm.098-.647c.29 0 .533-.075.733-.226.2-.153.351-.364.455-.632.104-.271.156-.584.156-.938 0-.35-.05-.657-.153-.92a1.344 1.344 0 0 0-.452-.617 1.207 1.207 0 0 0-.739-.223c-.306 0-.56.079-.764.236a1.401 1.401 0 0 0-.455.632c-.1.265-.15.562-.15.892 0 .334.051.637.153.91.104.271.257.487.459.648.203.158.456.238.757.238Zm5.44.647c-.452 0-.842-.099-1.17-.299a2.008 2.008 0 0 1-.754-.843c-.175-.362-.263-.784-.263-1.265 0-.48.088-.904.263-1.27.177-.369.423-.656.74-.862a1.99 1.99 0 0 1 1.11-.311c.245 0 .487.04.725.122.238.081.455.214.65.397.196.181.352.422.468.721.116.299.174.668.174 1.106v.305h-3.617v-.623h2.884a1.54 1.54 0 0 0-.159-.709 1.198 1.198 0 0 0-.446-.491 1.242 1.242 0 0 0-.678-.181c-.287 0-.536.072-.745.214a1.41 1.41 0 0 0-.48.55 1.614 1.614 0 0 0-.168.727v.415c0 .355.061.655.183.902.125.244.297.43.517.558.22.127.475.19.766.19.19 0 .36-.027.513-.08.155-.055.289-.136.4-.244.113-.11.2-.246.26-.409l.697.195a1.544 1.544 0 0 1-.37.623 1.795 1.795 0 0 1-.641.416 2.378 2.378 0 0 1-.859.146Zm3.04-.097v-4.692h.696v.709h.049c.085-.233.24-.421.464-.566a1.37 1.37 0 0 1 .758-.216 8.132 8.132 0 0 1 .379.012v.733a2.558 2.558 0 0 0-.44-.049c-.228 0-.432.048-.611.144a1.05 1.05 0 0 0-.574.956v2.969h-.721Zm7 .11c-.297 0-.567-.056-.81-.168a1.388 1.388 0 0 1-.577-.492 1.388 1.388 0 0 1-.214-.782c0-.269.053-.487.16-.654.105-.169.247-.301.424-.397a2.22 2.22 0 0 1 .586-.214 7.32 7.32 0 0 1 .65-.116 30.8 30.8 0 0 1 .694-.082c.18-.021.31-.054.391-.101.084-.047.126-.128.126-.244v-.025c0-.301-.083-.535-.248-.702-.163-.167-.41-.251-.742-.251-.344 0-.614.075-.81.226a1.34 1.34 0 0 0-.412.483l-.684-.245a1.64 1.64 0 0 1 .489-.666c.205-.16.43-.272.672-.336.244-.065.484-.097.72-.097.151 0 .324.018.52.055.197.034.388.107.57.217.186.11.34.276.462.498.122.221.183.519.183.891v3.092h-.72v-.636h-.037a1.25 1.25 0 0 1-.245.327 1.403 1.403 0 0 1-.455.296 1.74 1.74 0 0 1-.693.123Zm.11-.648c.285 0 .525-.056.72-.168a1.138 1.138 0 0 0 .6-.993v-.659c-.031.036-.098.07-.202.1-.102.029-.22.054-.354.077-.133.02-.262.038-.388.055l-.303.036a2.875 2.875 0 0 0-.525.119.907.907 0 0 0-.391.242c-.098.106-.147.25-.147.434 0 .25.093.439.278.568.188.126.425.189.712.189Zm5.446-4.154v.611h-2.53v-.611h2.53Zm-1.772 4.692v-5.34c0-.269.063-.493.19-.672.125-.179.29-.313.491-.403.202-.09.414-.134.639-.134a1.616 1.616 0 0 1 .683.122l-.207.623a3.373 3.373 0 0 0-.153-.046.942.942 0 0 0-.25-.027c-.238 0-.41.06-.517.18-.103.12-.155.296-.155.528v5.169h-.721Zm4.822-4.692v.611h-2.431v-.611h2.431Zm-1.722-1.124H64v4.472c0 .203.03.356.089.458.061.1.138.167.232.201a.92.92 0 0 0 .303.049 1.302 1.302 0 0 0 .317-.036l.147.647a1.34 1.34 0 0 1-.205.055 1.466 1.466 0 0 1-.333.031 1.45 1.45 0 0 1-.599-.132 1.179 1.179 0 0 1-.482-.4c-.126-.179-.19-.405-.19-.678v-4.667Zm4.723 5.913c-.452 0-.842-.099-1.17-.299a2.007 2.007 0 0 1-.754-.843c-.175-.362-.263-.784-.263-1.265 0-.48.088-.904.263-1.27.177-.369.424-.656.74-.862a1.991 1.991 0 0 1 1.111-.311c.245 0 .486.04.724.122.238.081.455.214.65.397.196.181.352.422.468.721.116.299.174.668.174 1.106v.305h-3.616v-.623h2.883a1.54 1.54 0 0 0-.159-.709 1.2 1.2 0 0 0-.446-.491 1.242 1.242 0 0 0-.678-.181c-.287 0-.535.072-.745.214a1.41 1.41 0 0 0-.48.55 1.614 1.614 0 0 0-.168.727v.415c0 .355.061.655.184.902.124.244.296.43.516.558.22.127.475.19.766.19.19 0 .36-.027.514-.08.154-.055.288-.136.4-.244a1.12 1.12 0 0 0 .26-.409l.696.195a1.544 1.544 0 0 1-.37.623 1.794 1.794 0 0 1-.641.416c-.255.098-.54.146-.859.146Zm3.04-.097v-4.692h.696v.709h.05c.085-.233.24-.421.463-.566.224-.144.477-.216.758-.216a8.132 8.132 0 0 1 .379.012v.733a2.579 2.579 0 0 0-.44-.049c-.228 0-.432.048-.611.144a1.05 1.05 0 0 0-.574.956v2.969h-.721Zm6.084 1.759a1.606 1.606 0 0 1-.526-.085l.184-.636c.175.045.33.061.464.049a.555.555 0 0 0 .357-.18c.106-.106.203-.278.29-.516l.135-.367-1.735-4.716h.782l1.295 3.739h.049l1.295-3.739h.782l-1.992 5.376c-.09.242-.2.443-.332.602a1.25 1.25 0 0 1-.462.357 1.429 1.429 0 0 1-.586.116Zm6.062-1.662c-.424 0-.796-.1-1.115-.302a2.06 2.06 0 0 1-.746-.846c-.177-.363-.265-.786-.265-1.271 0-.489.088-.915.265-1.28a2.06 2.06 0 0 1 .746-.849 2.05 2.05 0 0 1 1.115-.302c.423 0 .794.101 1.112.302.32.202.568.485.745.849.18.365.269.791.269 1.28 0 .485-.09.908-.27 1.271a2.032 2.032 0 0 1-.744.846 2.027 2.027 0 0 1-1.112.302Zm0-.647c.321 0 .586-.083.794-.248a1.45 1.45 0 0 0 .461-.65c.1-.269.15-.56.15-.874 0-.313-.05-.606-.15-.876-.1-.271-.253-.49-.461-.657-.208-.167-.473-.251-.794-.251-.322 0-.587.084-.794.251a1.478 1.478 0 0 0-.462.657c-.1.27-.15.563-.15.876 0 .314.05.605.15.874.1.269.254.486.462.65.207.165.472.248.794.248Zm6.183-1.369v-2.773h.72v4.692h-.72v-.794h-.049c-.11.238-.28.44-.513.607-.232.165-.526.248-.88.248a1.56 1.56 0 0 1-.782-.193 1.341 1.341 0 0 1-.537-.586c-.13-.263-.196-.594-.196-.993v-2.981h.721v2.932c0 .342.096.615.287.819.194.204.44.305.74.305.179 0 .36-.045.546-.137a1.19 1.19 0 0 0 .47-.422c.129-.189.193-.43.193-.724Zm4.46 1.919v-4.692h.697v.709h.049c.085-.233.24-.421.464-.566a1.37 1.37 0 0 1 .758-.216 8.132 8.132 0 0 1 .378.012v.733a2.558 2.558 0 0 0-.44-.049 1.27 1.27 0 0 0-.61.144 1.05 1.05 0 0 0-.574.956v2.969h-.722Zm5.025.097c-.452 0-.842-.099-1.17-.299a2.007 2.007 0 0 1-.754-.843c-.175-.362-.263-.784-.263-1.265 0-.48.088-.904.263-1.27.177-.369.424-.656.74-.862a1.991 1.991 0 0 1 1.111-.311c.244 0 .486.04.724.122.238.081.455.214.651.397.195.181.351.422.467.721.116.299.174.668.174 1.106v.305h-3.617v-.623h2.884a1.54 1.54 0 0 0-.159-.709 1.198 1.198 0 0 0-.446-.491 1.242 1.242 0 0 0-.678-.181c-.287 0-.536.072-.745.214a1.41 1.41 0 0 0-.48.55 1.614 1.614 0 0 0-.168.727v.415c0 .355.061.655.183.902.125.244.297.43.517.558.22.127.475.19.766.19.19 0 .36-.027.513-.08.155-.055.289-.136.4-.244.113-.11.2-.246.26-.409l.697.195a1.554 1.554 0 0 1-.37.623 1.793 1.793 0 0 1-.641.416 2.378 2.378 0 0 1-.859.146Zm4.42.013c-.297 0-.567-.056-.809-.168a1.38 1.38 0 0 1-.577-.492 1.385 1.385 0 0 1-.214-.782c0-.269.053-.487.159-.654.105-.169.247-.301.424-.397.177-.096.373-.167.587-.214.215-.049.432-.087.65-.116.285-.036.516-.064.694-.082.179-.021.309-.054.391-.101.083-.047.125-.128.125-.244v-.025c0-.301-.083-.535-.248-.702-.162-.167-.41-.251-.742-.251-.344 0-.614.075-.809.226a1.343 1.343 0 0 0-.413.483l-.684-.245a1.64 1.64 0 0 1 .489-.666c.206-.16.43-.272.672-.336.244-.065.485-.097.721-.097.15 0 .324.018.519.055.198.034.388.107.571.217.186.11.339.276.461.498.123.221.184.519.184.891v3.092h-.721v-.636h-.037c-.049.102-.13.211-.244.327a1.406 1.406 0 0 1-.455.296c-.19.082-.421.123-.694.123Zm.11-.648c.285 0 .526-.056.721-.168a1.137 1.137 0 0 0 .599-.993v-.659c-.031.036-.098.07-.202.1-.102.029-.22.054-.354.077-.132.02-.262.038-.388.055l-.302.036a2.873 2.873 0 0 0-.526.119.907.907 0 0 0-.391.242c-.098.106-.146.25-.146.434 0 .25.092.439.278.568.187.126.424.189.711.189Zm5.263.635c-.44 0-.819-.103-1.137-.311a2.038 2.038 0 0 1-.733-.858 2.912 2.912 0 0 1-.256-1.25c0-.476.087-.897.262-1.261a2.08 2.08 0 0 1 .739-.859 1.993 1.993 0 0 1 1.112-.311c.33 0 .628.061.892.183.265.122.482.293.651.513.169.22.274.477.315.77h-.721a1.114 1.114 0 0 0-.367-.568c-.187-.167-.44-.251-.757-.251-.281 0-.528.074-.74.22a1.437 1.437 0 0 0-.491.614 2.277 2.277 0 0 0-.175.926c0 .362.057.678.172.947.116.269.279.477.488.626.212.149.46.223.746.223.187 0 .357-.033.51-.098a1.06 1.06 0 0 0 .388-.281c.106-.122.181-.269.226-.44h.721a1.675 1.675 0 0 1-.935 1.274 2.042 2.042 0 0 1-.91.192Zm3.619-2.92v2.823h-.721v-6.256h.721v2.297h.061c.11-.242.275-.435.495-.577.222-.145.517-.217.886-.217.32 0 .6.064.84.192.24.126.427.321.559.584.134.26.202.592.202.995v2.982h-.721v-2.933c0-.372-.097-.661-.29-.864-.192-.206-.458-.309-.798-.309-.236 0-.448.05-.635.15-.185.1-.332.245-.44.437a1.415 1.415 0 0 0-.159.696Zm6.329 2.92c-.452 0-.842-.099-1.17-.299a2.007 2.007 0 0 1-.755-.843c-.175-.362-.262-.784-.262-1.265 0-.48.087-.904.262-1.27.177-.369.424-.656.739-.862a1.993 1.993 0 0 1 1.112-.311c.245 0 .486.04.724.122.239.081.455.214.651.397.195.181.351.422.467.721.116.299.174.668.174 1.106v.305h-3.616v-.623h2.883c0-.265-.053-.501-.159-.709a1.189 1.189 0 0 0-.446-.491 1.24 1.24 0 0 0-.678-.181c-.287 0-.535.072-.745.214a1.41 1.41 0 0 0-.48.55 1.614 1.614 0 0 0-.168.727v.415c0 .355.062.655.184.902.124.244.296.43.516.558.22.127.475.19.767.19.189 0 .36-.027.513-.08.155-.055.288-.136.4-.244.112-.11.199-.246.26-.409l.696.195a1.531 1.531 0 0 1-.37.623 1.788 1.788 0 0 1-.641.416 2.376 2.376 0 0 1-.858.146Zm4.811 0c-.391 0-.736-.098-1.036-.296a1.995 1.995 0 0 1-.702-.843c-.169-.364-.254-.795-.254-1.292 0-.493.085-.92.254-1.283.169-.362.404-.642.705-.84a1.87 1.87 0 0 1 1.045-.296c.305 0 .547.051.724.152.179.1.315.214.409.343.096.126.17.23.223.311h.061v-2.309h.721v6.256h-.696v-.721h-.086a4.842 4.842 0 0 1-.226.324 1.351 1.351 0 0 1-.418.345c-.182.1-.423.149-.724.149Zm.097-.647c.29 0 .534-.075.734-.226.199-.153.351-.364.455-.632a2.61 2.61 0 0 0 .155-.938c0-.35-.05-.657-.152-.92a1.349 1.349 0 0 0-.452-.617 1.209 1.209 0 0 0-.74-.223c-.305 0-.56.079-.763.236a1.392 1.392 0 0 0-.455.632c-.1.265-.15.562-.15.892 0 .334.051.637.153.91.104.271.256.487.458.648.204.158.456.238.757.238Z"/><defs><linearGradient id="b" x1="119.962" x2="119.962" y1="59.769" y2="167.589" gradientUnits="userSpaceOnUse"><stop stop-color="#3398F6" stop-opacity=".43"/><stop offset="1" stop-color="#3398F6" stop-opacity="0"/></linearGradient><filter id="a" width="24.928" height="24.927" x="203.178" y="204.405" color-interpolation-filters="sRGB" filterUnits="userSpaceOnUse"><feFlood flood-opacity="0" result="BackgroundImageFix"/><feColorMatrix in="SourceAlpha" result="hardAlpha" values="0 0 0 0 0 0 0 0 0 0 0 0 0 0 0 0 0 0 127 0"/><feOffset/><feGaussianBlur stdDeviation=".956"/><feComposite in2="hardAlpha" operator="out"/><feColorMatrix values="0 0 0 0 0 0 0 0 0 0 0 0 0 0 0 0 0 0 0.25 0"/><feBlend in2="BackgroundImageFix" result="effect1_dropShadow_6027_1133"/><feBlend in="SourceGraphic" in2="effect1_dropShadow_6027_1133" result="shape"/></filter></defs></svg>