<svg xmlns="http://www.w3.org/2000/svg" width="384" height="421" fill="none"><path fill="#fff" d="M.903.035h382.301v420.531H.903z"/><path fill="#3348F6" d="M284.68 144.374c4.503-2.754 5.95-8.665 2.841-12.93a118.151 118.151 0 0 0-80.955-47.648c-5.238-.648-9.703 3.486-9.926 8.76l-.19 4.51c-.223 5.274 3.884 9.681 9.108 10.435a94.507 94.507 0 0 1 61.727 36.331c3.196 4.202 9.042 5.654 13.544 2.899l3.851-2.357Z"/><path fill="#3291F6" d="M192.053 92.459c0-5.279-4.286-9.598-9.548-9.171a118.147 118.147 0 0 0-102.024 78.894c-1.737 4.985 1.365 10.22 6.474 11.548l4.37 1.135c5.108 1.328 10.28-1.76 12.117-6.708a94.52 94.52 0 0 1 79.069-61.143c5.252-.533 9.542-4.762 9.542-10.04v-4.515Z"/><path fill="#80BEF9" d="M286.124 146.805c4.573-2.637 10.456-1.082 12.714 3.689a118.14 118.14 0 0 1 1.82 97.074c-2.078 4.852-7.898 6.627-12.567 4.163l-3.993-2.107c-4.668-2.464-6.406-8.231-4.426-13.124a94.539 94.539 0 0 0 6.883-37.222 94.54 94.54 0 0 0-8.273-36.937c-2.162-4.815-.641-10.644 3.931-13.281l3.911-2.255Z"/><path fill="#32D9F6" d="M286.152 255.246c4.574 2.634 6.178 8.505 3.183 12.851a118.148 118.148 0 0 1-214.248-83.726c.745-5.226 5.904-8.453 11.053-7.288l4.403.996c5.148 1.165 8.326 6.283 7.687 11.523a94.517 94.517 0 0 0 59.419 99.483 94.52 94.52 0 0 0 111.129-32.835c3.082-4.284 8.888-5.892 13.462-3.257l3.912 2.253Z"/><path fill="#717171" d="m23.582 33.075 1.432 1.431-7.342 7.342 7.342 7.341-1.432 1.431-8.726-8.772 8.726-8.773Z"/><path fill="#fff" d="m350.57 33.075-1.432 1.431 7.341 7.342-7.341 7.341 1.432 1.431 8.726-8.772-8.726-8.773Zm-199.409 3.579V50.53h-2.629v-7.233l.148-4.058h-.042L144.79 50.53h-2.376l-3.827-11.291h-.042l.147 4.058v7.233h-2.628V36.654h4.205l2.502 7.57.883 3.132h.042l.904-3.112 2.482-7.59h4.079Zm8.594 7.17c0-.603-.175-1.073-.525-1.409-.337-.336-.785-.505-1.346-.505a2.38 2.38 0 0 0-1.367.4c-.392.266-.68.708-.862 1.325l-2.46-.757c.238-.926.757-1.669 1.556-2.23.813-.56 1.899-.84 3.259-.84.925 0 1.731.147 2.418.441.687.28 1.22.708 1.598 1.283.393.575.589 1.297.589 2.166v4.268c0 .533.252.799.757.799.238 0 .462-.035.673-.105l-.169 1.787c-.364.182-.82.273-1.366.273-.491 0-.932-.084-1.325-.252a2.057 2.057 0 0 1-.925-.757c-.224-.35-.337-.785-.337-1.303v-.084l.505-.085a2.416 2.416 0 0 1-.694 1.367 3.834 3.834 0 0 1-1.388.841 4.762 4.762 0 0 1-1.661.294c-.715 0-1.331-.105-1.85-.315-.519-.224-.918-.547-1.199-.967-.28-.42-.42-.94-.42-1.556 0-.785.252-1.423.757-1.913.505-.505 1.226-.849 2.166-1.03l3.953-.8-.021 1.788-2.524.504c-.476.098-.841.231-1.093.4-.238.154-.357.413-.357.778 0 .35.126.616.378.799.266.182.582.273.946.273.295 0 .582-.035.862-.105.281-.07.533-.182.757-.337.225-.154.4-.364.526-.63.126-.267.189-.59.189-.968v-2.838Zm5.451 6.707V40.018h2.502l.189 2.06c.28-.728.687-1.29 1.22-1.681.546-.393 1.226-.59 2.039-.59.238 0 .456.022.652.064s.357.098.484.168l-.337 2.418a2.217 2.217 0 0 0-.525-.126 5.754 5.754 0 0 0-.778-.042c-.421 0-.827.105-1.22.315a2.354 2.354 0 0 0-.967.925c-.253.407-.379.926-.379 1.556v5.446h-2.88Zm12.807-10.723c.939 0 1.731.14 2.376.42.659.267 1.185.638 1.577 1.115.407.462.694.98.862 1.556l-2.691.967c-.14-.631-.379-1.108-.715-1.43-.337-.322-.792-.484-1.367-.484-.532 0-.988.127-1.367.379-.378.238-.665.61-.862 1.114-.196.49-.294 1.108-.294 1.85 0 .744.098 1.36.294 1.851.211.49.505.855.884 1.093.392.239.848.358 1.366.358.421 0 .778-.07 1.073-.21.294-.155.532-.372.714-.652.197-.28.33-.617.4-1.01l2.607.841a3.848 3.848 0 0 1-.862 1.662c-.42.476-.96.848-1.619 1.114-.659.266-1.423.4-2.292.4-1.079 0-2.032-.218-2.859-.652a4.566 4.566 0 0 1-1.914-1.872c-.448-.813-.673-1.794-.673-2.943 0-1.15.225-2.131.673-2.944a4.597 4.597 0 0 1 1.893-1.872c.813-.434 1.745-.651 2.796-.651Zm6.465 10.723V35.413h2.88v6.392c.337-.673.799-1.17 1.388-1.493.589-.336 1.255-.504 1.998-.504.729 0 1.373.14 1.934.42a3.05 3.05 0 0 1 1.346 1.283c.336.56.505 1.268.505 2.123v6.897h-2.881v-6.055c0-.911-.175-1.535-.526-1.872-.35-.35-.799-.525-1.345-.525a2.53 2.53 0 0 0-1.178.294c-.364.182-.666.49-.904.925-.224.42-.337.981-.337 1.682v5.551h-2.88Zm18.036 0v-1.955a55.23 55.23 0 0 0 3.197-2.313c.883-.701 1.591-1.346 2.123-1.935.547-.602.939-1.17 1.178-1.703a3.71 3.71 0 0 0 .378-1.598c0-.645-.196-1.17-.589-1.577-.392-.42-.946-.63-1.661-.63-.785 0-1.401.266-1.85.798-.435.533-.673 1.29-.715 2.271l-2.502-.946c.07-.953.322-1.76.757-2.418a4.289 4.289 0 0 1 1.808-1.535c.771-.364 1.654-.547 2.65-.547.855 0 1.591.12 2.207.358.631.238 1.15.568 1.556.988.421.407.736.876.946 1.409a4.47 4.47 0 0 1 .316 1.661c0 .897-.224 1.745-.673 2.544-.435.8-1.107 1.591-2.019 2.376-.911.785-2.067 1.612-3.469 2.481v.021c.21-.014.463-.028.757-.042.308-.014.624-.02.946-.02.323-.015.603-.022.841-.022h3.827v2.334h-10.009Zm17.112.21c-1.78 0-3.154-.602-4.121-1.808-.953-1.205-1.43-2.986-1.43-5.34 0-2.356.477-4.136 1.43-5.341.967-1.206 2.341-1.809 4.121-1.809 1.781 0 3.147.603 4.1 1.809.968 1.205 1.451 2.985 1.451 5.34s-.483 4.136-1.451 5.341c-.953 1.206-2.319 1.809-4.1 1.809Zm0-2.333c.603 0 1.094-.169 1.472-.505.393-.35.687-.876.883-1.577.197-.715.295-1.626.295-2.733 0-1.108-.098-2.012-.295-2.713-.196-.715-.49-1.24-.883-1.577-.378-.35-.869-.526-1.472-.526-.602 0-1.1.176-1.493.526-.392.337-.686.862-.883 1.577-.182.7-.273 1.605-.273 2.712 0 1.108.091 2.019.273 2.734.197.7.491 1.227.883 1.577.393.336.891.505 1.493.505Zm7.417 2.123v-1.955a54.826 54.826 0 0 0 3.196-2.313c.883-.701 1.591-1.346 2.124-1.935.547-.602.939-1.17 1.177-1.703a3.696 3.696 0 0 0 .379-1.598c0-.645-.196-1.17-.589-1.577-.392-.42-.946-.63-1.661-.63-.785 0-1.402.266-1.85.798-.435.533-.673 1.29-.715 2.271l-2.502-.946c.07-.953.322-1.76.757-2.418a4.289 4.289 0 0 1 1.808-1.535c.771-.364 1.654-.547 2.649-.547.855 0 1.591.12 2.208.358.631.238 1.15.568 1.556.988.421.407.736.876.946 1.409a4.47 4.47 0 0 1 .316 1.661c0 .897-.225 1.745-.673 2.544-.435.8-1.108 1.591-2.019 2.376-.911.785-2.067 1.612-3.469 2.481v.021c.21-.014.462-.028.757-.042.308-.014.624-.02.946-.02.322-.015.603-.022.841-.022h3.827v2.334h-10.009Zm16.671.21c-1.388 0-2.573-.287-3.554-.862-.967-.588-1.633-1.43-1.997-2.523l2.733-1.198c.098.504.259.925.484 1.261.224.323.525.568.904.736.392.169.855.253 1.388.253.476 0 .876-.084 1.198-.253.336-.168.596-.406.778-.715.182-.308.273-.658.273-1.051 0-.42-.084-.764-.252-1.03a1.271 1.271 0 0 0-.715-.568c-.322-.126-.729-.19-1.219-.19-.183 0-.358.008-.526.022a3.78 3.78 0 0 0-.526.042V42.54l.337.042h.378c.785 0 1.346-.154 1.682-.462.351-.323.526-.834.526-1.535 0-.575-.175-1.017-.526-1.325-.336-.322-.82-.484-1.451-.484-.672 0-1.205.169-1.598.505-.392.323-.665.82-.82 1.493l-2.586-.967a3.92 3.92 0 0 1 .967-1.809 4.839 4.839 0 0 1 1.809-1.156c.715-.28 1.507-.42 2.376-.42 1.037 0 1.899.16 2.586.483.701.322 1.226.764 1.577 1.325.364.56.547 1.205.547 1.934 0 .575-.092 1.066-.274 1.472a3.169 3.169 0 0 1-.673 1.01 3.062 3.062 0 0 1-.841.61 2.59 2.59 0 0 1-.82.251v.063c.323.015.652.085.989.21.336.113.644.288.925.526.294.239.532.547.715.926.182.364.273.799.273 1.303 0 .841-.224 1.584-.673 2.229-.434.63-1.03 1.121-1.787 1.472-.757.336-1.626.505-2.607.505Z"/><path fill="#101214" d="M168.737 189.809v-3.26h-6.77v-1.892c.07-.14.168-.308.294-.505.14-.21.294-.448.463-.714l5.172-7.507h3.47v8.516h2.249v2.102h-2.249v3.26h-2.629Zm-4.289-5.362h4.31v-4.584c0-.294.007-.61.021-.946l.042-.988h-.042c-.154.308-.343.644-.567 1.009-.211.35-.407.666-.589.946l-2.902 4.163a2.02 2.02 0 0 1-.147.211 2.213 2.213 0 0 0-.126.189Zm15.282 5.572c-1.219 0-2.25-.252-3.091-.757-.827-.505-1.507-1.276-2.039-2.313l2.607-1.304c.182.617.47 1.115.862 1.493.393.379.967.568 1.724.568.519 0 .961-.091 1.325-.273.364-.183.645-.449.841-.799.21-.351.315-.778.315-1.283 0-.505-.098-.925-.294-1.262a1.72 1.72 0 0 0-.799-.778c-.35-.182-.792-.273-1.325-.273-.364 0-.707.035-1.03.105-.308.07-.589.182-.841.337-.252.14-.477.329-.673.567l-2.271-.42.862-7.696h8.39v2.334h-6.203l-.42 3.385-.063.274h.042c.294-.337.693-.596 1.198-.778.519-.183 1.108-.274 1.766-.274.912 0 1.689.183 2.334.547a3.742 3.742 0 0 1 1.493 1.535c.351.645.526 1.388.526 2.229 0 .799-.133 1.507-.4 2.123a4.058 4.058 0 0 1-1.135 1.514 5.129 5.129 0 0 1-1.661.904 6.811 6.811 0 0 1-2.04.295Zm12.638-14.298c.743 0 1.416.105 2.018.315a3.911 3.911 0 0 1 1.577.967c.463.435.82 1.017 1.073 1.746l-2.439 1.135c-.169-.547-.449-.974-.841-1.283-.379-.322-.905-.483-1.577-.483a2.47 2.47 0 0 0-1.283.336 2.99 2.99 0 0 0-.946.967c-.267.421-.47.926-.61 1.514a8.096 8.096 0 0 0-.21 1.914v.357l.063.084c.154-.49.42-.897.799-1.219a3.94 3.94 0 0 1 1.303-.715 4.832 4.832 0 0 1 1.451-.231c.883 0 1.661.175 2.334.525.687.337 1.22.827 1.598 1.472.393.645.589 1.416.589 2.313 0 .925-.21 1.738-.631 2.439-.406.687-.988 1.22-1.745 1.598-.743.365-1.633.547-2.67.547-1.178 0-2.201-.28-3.07-.841-.855-.561-1.521-1.367-1.998-2.418-.462-1.052-.694-2.32-.694-3.806 0-1.612.26-2.951.778-4.016.519-1.079 1.227-1.886 2.124-2.418.897-.533 1.899-.799 3.007-.799Zm-.189 7.527c-.463 0-.869.098-1.22.295-.35.182-.631.441-.841.778-.21.322-.315.701-.315 1.135 0 .435.105.82.315 1.157.224.336.512.602.862.799.365.196.764.294 1.199.294.743 0 1.317-.196 1.724-.589.42-.392.631-.946.631-1.661 0-.448-.092-.841-.274-1.177a1.735 1.735 0 0 0-.799-.757c-.35-.183-.778-.274-1.282-.274Zm6.776 6.561v-1.956a54.682 54.682 0 0 0 3.196-2.313c.883-.701 1.591-1.345 2.124-1.934.546-.603.939-1.171 1.177-1.703a3.7 3.7 0 0 0 .379-1.598c0-.645-.196-1.171-.589-1.577-.392-.421-.946-.631-1.661-.631-.785 0-1.402.266-1.85.799-.435.532-.673 1.289-.715 2.271l-2.502-.947c.07-.953.322-1.759.756-2.418a4.308 4.308 0 0 1 1.809-1.535c.771-.364 1.654-.546 2.649-.546.855 0 1.591.119 2.208.357.631.239 1.149.568 1.556.989.42.406.736.876.946 1.408.21.533.315 1.087.315 1.661 0 .898-.224 1.746-.672 2.545-.435.799-1.108 1.591-2.019 2.376-.911.785-2.068 1.612-3.469 2.481v.021c.21-.014.462-.028.757-.042.308-.014.623-.021.946-.021.322-.014.603-.021.841-.021h3.827v2.334h-10.009Zm16.67.21c-1.387 0-2.572-.288-3.553-.862-.967-.589-1.633-1.43-1.998-2.523l2.734-1.199c.098.505.259.925.483 1.262.225.322.526.567.905.736.392.168.855.252 1.387.252.477 0 .876-.084 1.199-.252a1.84 1.84 0 0 0 .778-.715c.182-.309.273-.659.273-1.052 0-.42-.084-.764-.252-1.03a1.276 1.276 0 0 0-.715-.568c-.322-.126-.729-.189-1.22-.189-.182 0-.357.007-.525.021-.154 0-.33.014-.526.042v-2.123l.336.042h.379c.785 0 1.346-.155 1.682-.463.351-.322.526-.834.526-1.535 0-.575-.175-1.016-.526-1.325-.336-.322-.82-.483-1.451-.483-.673 0-1.205.168-1.598.504-.392.323-.666.82-.82 1.493l-2.586-.967a3.912 3.912 0 0 1 .967-1.808 4.848 4.848 0 0 1 1.808-1.157c.715-.28 1.507-.42 2.376-.42 1.038 0 1.9.161 2.587.483.701.323 1.226.764 1.577 1.325.364.561.546 1.206.546 1.935 0 .574-.091 1.065-.273 1.471a3.173 3.173 0 0 1-.673 1.01 3.052 3.052 0 0 1-.841.609 2.575 2.575 0 0 1-.82.253v.063c.322.014.652.084.988.21.337.112.645.287.926.526.294.238.532.546.714.925.183.364.274.799.274 1.304 0 .841-.225 1.584-.673 2.228-.435.631-1.03 1.122-1.787 1.472-.757.337-1.626.505-2.608.505Z"/><path fill="#696969" d="m139.543 212.753-2.646 7.299h-1.521l-2.651-7.299h1.525l1.849 5.617h.076l1.843-5.617h1.525Zm1.336 7.299v-7.299h1.42v7.299h-1.42Zm.717-8.425a.904.904 0 0 1-.637-.247.803.803 0 0 1-.261-.599c0-.234.087-.434.261-.598a.895.895 0 0 1 .637-.252c.247 0 .458.084.632.252a.783.783 0 0 1 .266.598.794.794 0 0 1-.266.599.885.885 0 0 1-.632.247Zm8.084 2.908-1.288.228a1.527 1.527 0 0 0-.256-.47 1.272 1.272 0 0 0-.466-.366c-.196-.095-.442-.143-.737-.143-.402 0-.738.091-1.007.271-.269.178-.404.407-.404.689 0 .244.09.441.271.589.181.149.472.271.874.366l1.16.266c.671.156 1.172.395 1.501.718.33.323.494.743.494 1.259 0 .437-.126.827-.38 1.169-.25.339-.6.605-1.05.798-.446.193-.964.29-1.554.29-.817 0-1.484-.174-2-.523-.516-.351-.833-.85-.95-1.496l1.373-.209c.085.358.261.628.527.812.266.181.613.271 1.041.271.466 0 .838-.097 1.117-.29.278-.196.418-.435.418-.717a.746.746 0 0 0-.257-.575c-.168-.156-.426-.273-.774-.352l-1.236-.271c-.681-.155-1.185-.402-1.511-.741-.323-.339-.485-.768-.485-1.288 0-.431.121-.808.362-1.131.24-.323.573-.575.997-.755.425-.184.911-.276 1.459-.276.789 0 1.41.171 1.863.513.453.339.752.794.898 1.364Zm1.704 5.517v-7.299h1.421v7.299h-1.421Zm.718-8.425a.904.904 0 0 1-.637-.247.803.803 0 0 1-.261-.599c0-.234.087-.434.261-.598a.895.895 0 0 1 .637-.252c.247 0 .458.084.632.252a.786.786 0 0 1 .266.598.798.798 0 0 1-.266.599.885.885 0 0 1-.632.247Zm6.021 1.126v1.141h-3.986v-1.141h3.986Zm-2.917-1.748h1.421v6.904c0 .275.041.483.123.622.083.136.189.23.319.281.133.047.277.071.432.071.114 0 .214-.008.299-.024l.2-.038.256 1.174a2.498 2.498 0 0 1-.351.095 2.759 2.759 0 0 1-.57.057 2.5 2.5 0 0 1-1.046-.2 1.796 1.796 0 0 1-.784-.646c-.199-.291-.299-.657-.299-1.098v-7.198Zm7.485 9.194c-.684 0-1.281-.157-1.791-.47a3.176 3.176 0 0 1-1.188-1.317c-.282-.563-.423-1.222-.423-1.976 0-.757.141-1.419.423-1.986a3.163 3.163 0 0 1 1.188-1.321c.51-.314 1.107-.471 1.791-.471.684 0 1.281.157 1.791.471.51.313.906.754 1.188 1.321.282.567.423 1.229.423 1.986 0 .754-.141 1.413-.423 1.976a3.176 3.176 0 0 1-1.188 1.317c-.51.313-1.107.47-1.791.47Zm.005-1.193c.443 0 .811-.117 1.102-.351.291-.235.507-.547.646-.936.143-.39.214-.819.214-1.288 0-.466-.071-.893-.214-1.283a2.084 2.084 0 0 0-.646-.945c-.291-.238-.659-.357-1.102-.357-.447 0-.818.119-1.112.357a2.108 2.108 0 0 0-.651.945 3.77 3.77 0 0 0-.209 1.283c0 .469.069.898.209 1.288.142.389.359.701.651.936.294.234.665.351 1.112.351Zm4.983 1.046v-7.299h1.373v1.16h.076c.133-.393.368-.702.703-.927a2.015 2.015 0 0 1 1.15-.342c.089 0 .194.003.314.01.123.006.22.014.29.023v1.359a2.551 2.551 0 0 0-.304-.052 2.932 2.932 0 0 0-.437-.033c-.336 0-.636.071-.899.214a1.59 1.59 0 0 0-.845 1.43v4.457h-1.421Zm10.604-5.517-1.287.228a1.53 1.53 0 0 0-.257-.47 1.264 1.264 0 0 0-.466-.366c-.196-.095-.441-.143-.736-.143-.402 0-.738.091-1.007.271-.27.178-.404.407-.404.689 0 .244.09.441.271.589.18.149.472.271.874.366l1.159.266c.672.156 1.172.395 1.502.718.329.323.494.743.494 1.259 0 .437-.127.827-.38 1.169-.25.339-.601.605-1.05.798-.447.193-.965.29-1.554.29-.817 0-1.484-.174-2.001-.523-.516-.351-.833-.85-.95-1.496l1.373-.209c.086.358.262.628.528.812.266.181.613.271 1.04.271.466 0 .838-.097 1.117-.29.279-.196.418-.435.418-.717a.745.745 0 0 0-.256-.575c-.168-.156-.427-.273-.775-.352l-1.235-.271c-.681-.155-1.185-.402-1.511-.741-.323-.339-.485-.768-.485-1.288 0-.431.12-.808.361-1.131.241-.323.573-.575.998-.755.424-.184.911-.276 1.459-.276.788 0 1.409.171 1.862.513.453.339.753.794.898 1.364Zm8.653-1.782v1.141h-3.987v-1.141h3.987Zm-2.917-1.748h1.42v6.904c0 .275.041.483.124.622.082.136.188.23.318.281.133.047.277.071.433.071.114 0 .213-.008.299-.024.085-.016.152-.028.199-.038l.257 1.174c-.082.031-.2.063-.352.095a2.759 2.759 0 0 1-.57.057 2.495 2.495 0 0 1-1.045-.2 1.79 1.79 0 0 1-.784-.646c-.2-.291-.299-.657-.299-1.098v-7.198Zm6.066 4.713v4.334h-1.421v-9.732h1.402v3.621h.09c.171-.393.433-.705.784-.936.352-.231.811-.347 1.378-.347.501 0 .938.103 1.312.309.377.206.668.513.874.922.209.405.314.912.314 1.52v4.643h-1.421v-4.472c0-.535-.138-.95-.413-1.244-.276-.298-.659-.447-1.15-.447-.336 0-.637.071-.903.214-.263.142-.47.351-.623.627-.148.272-.223.602-.223.988Zm6.629 4.334v-7.299h1.42v7.299h-1.42Zm.717-8.425a.904.904 0 0 1-.637-.247.803.803 0 0 1-.261-.599c0-.234.087-.434.261-.598a.895.895 0 0 1 .637-.252c.247 0 .458.084.632.252a.786.786 0 0 1 .266.598.798.798 0 0 1-.266.599.885.885 0 0 1-.632.247Zm8.084 2.908-1.288.228a1.527 1.527 0 0 0-.256-.47 1.272 1.272 0 0 0-.466-.366c-.197-.095-.442-.143-.737-.143-.402 0-.738.091-1.007.271-.269.178-.404.407-.404.689 0 .244.09.441.271.589.181.149.472.271.874.366l1.16.266c.671.156 1.172.395 1.501.718.33.323.494.743.494 1.259 0 .437-.126.827-.38 1.169-.25.339-.6.605-1.05.798-.447.193-.964.29-1.554.29-.817 0-1.484-.174-2-.523-.516-.351-.833-.85-.95-1.496l1.373-.209c.085.358.261.628.527.812.266.181.613.271 1.041.271.466 0 .838-.097 1.116-.29.279-.196.419-.435.419-.717a.746.746 0 0 0-.257-.575c-.168-.156-.426-.273-.774-.352l-1.236-.271c-.681-.155-1.185-.402-1.511-.741-.323-.339-.485-.768-.485-1.288 0-.431.121-.808.362-1.131.24-.323.573-.575.997-.755.425-.184.911-.276 1.459-.276.789 0 1.41.171 1.863.513.453.339.752.794.898 1.364Zm5.246 5.517v-7.299h1.363v1.188h.091c.152-.402.4-.716.746-.941.345-.228.758-.342 1.24-.342.488 0 .896.114 1.226.342.332.228.578.542.736.941h.076c.174-.389.452-.7.832-.931.38-.235.833-.352 1.359-.352.662 0 1.202.208 1.62.623.421.415.632 1.04.632 1.877v4.894h-1.421v-4.761c0-.495-.134-.852-.404-1.074a1.466 1.466 0 0 0-.964-.333c-.463 0-.822.143-1.079.428-.256.282-.385.644-.385 1.088v4.652h-1.416V215.2c0-.396-.123-.714-.37-.955-.247-.24-.569-.361-.965-.361-.269 0-.518.071-.746.214a1.562 1.562 0 0 0-.546.584 1.787 1.787 0 0 0-.205.87v4.5h-1.42Zm14.899.147c-.684 0-1.281-.157-1.791-.47a3.176 3.176 0 0 1-1.188-1.317c-.282-.563-.423-1.222-.423-1.976 0-.757.141-1.419.423-1.986a3.163 3.163 0 0 1 1.188-1.321c.51-.314 1.107-.471 1.791-.471.685 0 1.282.157 1.792.471.51.313.906.754 1.188 1.321.282.567.423 1.229.423 1.986 0 .754-.141 1.413-.423 1.976a3.176 3.176 0 0 1-1.188 1.317c-.51.313-1.107.47-1.792.47Zm.005-1.193c.444 0 .811-.117 1.103-.351.291-.235.506-.547.646-.936.142-.39.214-.819.214-1.288 0-.466-.072-.893-.214-1.283a2.092 2.092 0 0 0-.646-.945c-.292-.238-.659-.357-1.103-.357-.446 0-.817.119-1.112.357a2.124 2.124 0 0 0-.651.945c-.139.39-.209.817-.209 1.283 0 .469.07.898.209 1.288.143.389.36.701.651.936.295.234.666.351 1.112.351Zm6.404-3.288v4.334h-1.421v-7.299h1.364v1.188h.09c.168-.386.431-.697.789-.931.361-.235.816-.352 1.364-.352.497 0 .933.105 1.307.314a2.1 2.1 0 0 1 .869.922c.206.408.309.914.309 1.515v4.643h-1.421v-4.472c0-.529-.138-.942-.413-1.24-.276-.301-.654-.451-1.136-.451-.329 0-.622.071-.879.214a1.534 1.534 0 0 0-.603.627c-.146.272-.219.602-.219.988Zm9.983-2.965v1.141h-3.986v-1.141h3.986Zm-2.917-1.748h1.421v6.904c0 .275.041.483.123.622a.65.65 0 0 0 .318.281c.133.047.278.071.433.071.114 0 .214-.008.299-.024l.2-.038.256 1.174a2.498 2.498 0 0 1-.351.095 2.759 2.759 0 0 1-.57.057 2.5 2.5 0 0 1-1.046-.2 1.796 1.796 0 0 1-.784-.646c-.199-.291-.299-.657-.299-1.098v-7.198Zm6.066 4.713v4.334h-1.42v-9.732h1.401v3.621h.091c.171-.393.432-.705.784-.936.351-.231.811-.347 1.378-.347.5 0 .937.103 1.311.309.377.206.669.513.874.922.209.405.314.912.314 1.52v4.643h-1.421v-4.472c0-.535-.137-.95-.413-1.244-.276-.298-.659-.447-1.15-.447-.336 0-.637.071-.903.214-.263.142-.47.351-.622.627-.149.272-.224.602-.224.988Z"/><path fill="#101214" d="m121.978 355.443-4.025 7.105v4.249h-2.374v-4.249l-4.026-7.105h2.529l1.824 3.406.86 1.772.877-1.772 1.824-3.406h2.511Zm3.171 2.58c.871 0 1.634.178 2.288.533a3.762 3.762 0 0 1 1.548 1.531c.379.666.568 1.469.568 2.409 0 .929-.189 1.732-.568 2.408a3.758 3.758 0 0 1-1.548 1.532c-.654.355-1.417.533-2.288.533-.861 0-1.623-.178-2.288-.533a3.867 3.867 0 0 1-1.566-1.532c-.367-.676-.55-1.479-.55-2.408 0-.94.183-1.743.55-2.409.379-.665.9-1.175 1.566-1.531.665-.355 1.427-.533 2.288-.533Zm0 1.755c-.436 0-.809.103-1.119.309-.298.195-.527.494-.688.895-.16.401-.241.906-.241 1.514s.081 1.112.241 1.514c.161.401.39.705.688.912.31.195.683.292 1.119.292.424 0 .785-.097 1.083-.292.31-.207.545-.511.706-.912.16-.402.241-.906.241-1.514s-.081-1.113-.241-1.514c-.161-.401-.396-.7-.706-.895-.298-.206-.659-.309-1.083-.309Zm8.853 7.191a3.725 3.725 0 0 1-1.548-.31 2.452 2.452 0 0 1-1.101-.98c-.264-.459-.396-1.05-.396-1.772v-5.712h2.357v5.144c0 .665.138 1.13.413 1.393.275.253.671.379 1.187.379.241 0 .476-.04.705-.12.23-.092.43-.23.602-.413.184-.184.327-.419.43-.706.104-.298.155-.648.155-1.049v-4.628h2.357v8.602h-2.099l-.086-1.497c-.286.574-.682.998-1.187 1.273-.493.264-1.089.396-1.789.396Zm16.771-5.66c0-.493-.144-.877-.43-1.153-.276-.275-.643-.413-1.101-.413-.425 0-.798.109-1.119.327-.321.218-.556.579-.705 1.084l-2.013-.619a3.118 3.118 0 0 1 1.273-1.824c.665-.459 1.554-.688 2.667-.688.757 0 1.416.12 1.978.361.562.23.998.58 1.308 1.05.321.47.481 1.061.481 1.772v3.492c0 .436.207.654.62.654.195 0 .378-.029.55-.086l-.137 1.462c-.299.149-.671.224-1.119.224-.401 0-.762-.069-1.084-.207a1.675 1.675 0 0 1-.756-.619c-.184-.287-.276-.642-.276-1.067v-.068l.413-.069a1.979 1.979 0 0 1-.568 1.118 3.145 3.145 0 0 1-1.135.688 3.892 3.892 0 0 1-1.359.241c-.585 0-1.09-.086-1.514-.258-.424-.184-.751-.447-.981-.792-.229-.344-.344-.768-.344-1.273 0-.642.207-1.164.62-1.565.413-.413 1.003-.694 1.772-.843l3.234-.654-.017 1.463-2.065.412c-.39.081-.688.19-.894.327-.195.126-.293.339-.293.637 0 .287.103.504.31.654.218.149.476.223.774.223.241 0 .476-.029.705-.086.23-.057.436-.149.62-.275.183-.126.327-.298.43-.516.103-.218.155-.482.155-.792v-2.322Zm4.459 5.488v-8.602h2.047l.155 1.686c.23-.596.562-1.055.998-1.376.447-.321 1.004-.482 1.669-.482.195 0 .372.017.533.052.161.034.292.08.396.137l-.276 1.979a1.806 1.806 0 0 0-.43-.104 4.847 4.847 0 0 0-.636-.034c-.344 0-.677.086-.998.258a1.925 1.925 0 0 0-.791.757c-.207.333-.31.757-.31 1.273v4.456h-2.357Zm10.565.172c-.906 0-1.697-.178-2.374-.533a3.758 3.758 0 0 1-1.548-1.532c-.367-.665-.551-1.468-.551-2.408s.184-1.743.551-2.409a3.787 3.787 0 0 1 1.531-1.531c.665-.355 1.422-.533 2.271-.533.871 0 1.611.178 2.219.533.608.344 1.072.82 1.393 1.428.321.597.482 1.279.482 2.047 0 .23-.006.448-.017.654-.012.207-.029.39-.052.551h-6.864v-1.635h5.832l-1.135.413c0-.722-.167-1.279-.499-1.668-.322-.39-.78-.585-1.377-.585-.435 0-.814.103-1.135.309-.31.207-.545.516-.705.929-.161.402-.241.912-.241 1.531 0 .608.086 1.113.258 1.514.183.39.436.683.757.878.332.195.728.292 1.187.292.504 0 .912-.097 1.221-.292.31-.195.551-.465.723-.809l1.875.723a2.984 2.984 0 0 1-.843 1.152 3.822 3.822 0 0 1-1.325.74 5.343 5.343 0 0 1-1.634.241Zm13.449 0a3.496 3.496 0 0 1-1.909-.533c-.551-.356-.987-.866-1.308-1.532-.31-.665-.464-1.462-.464-2.391 0-.952.166-1.76.498-2.426.333-.676.78-1.187 1.342-1.531a3.59 3.59 0 0 1 1.927-.533c.757 0 1.382.218 1.875.654.493.436.815.998.964 1.686l-.224.275v-6.21h2.357v12.369h-2.116l-.155-2.615.293.138a3.199 3.199 0 0 1-.551 1.41c-.287.39-.648.694-1.084.912a3.183 3.183 0 0 1-1.445.327Zm.688-1.806c.413 0 .769-.104 1.067-.31.298-.218.527-.533.688-.946.172-.413.258-.906.258-1.48 0-.55-.08-1.015-.241-1.393-.16-.39-.39-.688-.688-.895a1.8 1.8 0 0 0-1.049-.31c-.643 0-1.147.23-1.514.689-.356.447-.534 1.106-.534 1.978 0 .872.178 1.537.534 1.996.355.447.848.671 1.479.671Zm10.253-7.14c.871 0 1.634.178 2.288.533a3.762 3.762 0 0 1 1.548 1.531c.379.666.568 1.469.568 2.409 0 .929-.189 1.732-.568 2.408a3.758 3.758 0 0 1-1.548 1.532c-.654.355-1.417.533-2.288.533-.86 0-1.623-.178-2.288-.533a3.867 3.867 0 0 1-1.566-1.532c-.367-.676-.55-1.479-.55-2.408 0-.94.183-1.743.55-2.409.379-.665.9-1.175 1.566-1.531.665-.355 1.428-.533 2.288-.533Zm0 1.755c-.436 0-.809.103-1.118.309-.299.195-.528.494-.689.895-.16.401-.24.906-.24 1.514s.08 1.112.24 1.514c.161.401.39.705.689.912.309.195.682.292 1.118.292.424 0 .785-.097 1.084-.292.309-.207.544-.511.705-.912.16-.402.241-.906.241-1.514s-.081-1.113-.241-1.514c-.161-.401-.396-.7-.705-.895-.299-.206-.66-.309-1.084-.309Zm7.047-2.822c-.493 0-.86-.103-1.101-.309-.241-.218-.361-.534-.361-.946 0-.425.12-.74.361-.947.241-.218.608-.326 1.101-.326s.86.108 1.101.326c.241.207.361.522.361.947 0 .412-.12.728-.361.946-.241.206-.608.309-1.101.309Zm1.17 1.239v8.602h-2.357v-8.602h2.357Zm1.982 8.602v-8.602h2.116l.138 2.581-.293-.276c.138-.562.356-1.026.654-1.393a2.67 2.67 0 0 1 1.084-.809 3.653 3.653 0 0 1 1.428-.275c.596 0 1.124.115 1.582.344.471.23.838.579 1.101 1.05.276.458.413 1.038.413 1.737v5.643h-2.357v-4.972c0-.734-.143-1.239-.43-1.514-.286-.287-.659-.43-1.118-.43-.321 0-.636.08-.946.241-.298.149-.545.396-.74.74-.183.344-.275.802-.275 1.376v4.559h-2.357Zm18.066-10.649.275 1.686h-.154a.619.619 0 0 0-.155-.017c-.528 0-.924.12-1.187.361-.264.229-.396.55-.396.963l-.963-.395c0-.459.091-.883.275-1.273.183-.402.453-.723.808-.964.367-.241.803-.361 1.308-.361h.189Zm-2.821 9.032c.929 0 1.646.2 2.15.602.505.401.757.963.757 1.686 0 .654-.189 1.204-.568 1.651-.378.459-.911.803-1.599 1.033-.677.229-1.463.344-2.357.344-1.48 0-2.564-.207-3.252-.62-.676-.413-1.015-.952-1.015-1.617 0-.47.178-.866.533-1.187.367-.321.97-.499 1.807-.533l-.086.275c-.597-.103-1.055-.298-1.376-.585-.31-.298-.465-.705-.465-1.221a1.6 1.6 0 0 1 .602-1.291c.413-.344.969-.544 1.669-.602l1.032.482h-.241c-.493.034-.843.138-1.049.31-.195.16-.293.344-.293.55 0 .241.092.425.276.551.195.114.47.172.825.172h2.65Zm-1.6 3.699c.596 0 1.084-.052 1.462-.155.39-.104.677-.235.86-.396.195-.161.293-.338.293-.533a.654.654 0 0 0-.258-.534c-.172-.126-.482-.189-.929-.189h-2.908c-.275 0-.504.069-.688.207a.685.685 0 0 0-.258.567c0 .321.212.574.637.757.436.184 1.032.276 1.789.276Zm.017-10.856c.803 0 1.497.12 2.082.361.596.23 1.049.562 1.359.998.321.436.481.958.481 1.566 0 .596-.16 1.112-.481 1.548-.31.436-.763.774-1.359 1.015-.585.229-1.279.344-2.082.344-1.273 0-2.248-.258-2.925-.774-.665-.528-.997-1.239-.997-2.133 0-.608.154-1.13.464-1.566.321-.436.774-.768 1.359-.998.585-.241 1.285-.361 2.099-.361Zm0 1.48c-.459 0-.837.126-1.135.378-.299.252-.448.602-.448 1.049 0 .448.149.803.448 1.067.298.252.676.379 1.135.379.459 0 .832-.127 1.118-.379.298-.264.448-.619.448-1.067 0-.447-.15-.797-.448-1.049-.286-.252-.659-.378-1.118-.378Zm18.072-3.355.276 1.686h-.155a.619.619 0 0 0-.155-.017c-.528 0-.923.12-1.187.361-.264.229-.396.55-.396.963l-.963-.395c0-.459.091-.883.275-1.273.183-.402.453-.723.809-.964.367-.241.802-.361 1.307-.361h.189Zm-2.821 9.032c.929 0 1.646.2 2.15.602.505.401.757.963.757 1.686 0 .654-.189 1.204-.567 1.651-.379.459-.912.803-1.6 1.033-.677.229-1.463.344-2.357.344-1.48 0-2.564-.207-3.252-.62-.676-.413-1.015-.952-1.015-1.617 0-.47.178-.866.534-1.187.367-.321.969-.499 1.806-.533l-.086.275c-.596-.103-1.055-.298-1.376-.585-.31-.298-.465-.705-.465-1.221a1.6 1.6 0 0 1 .602-1.291c.413-.344.969-.544 1.669-.602l1.032.482h-.241c-.493.034-.843.138-1.049.31-.195.16-.293.344-.293.55 0 .241.092.425.276.551.195.114.47.172.826.172h2.649Zm-1.6 3.699c.596 0 1.084-.052 1.462-.155.39-.104.677-.235.86-.396.195-.161.293-.338.293-.533a.654.654 0 0 0-.258-.534c-.172-.126-.482-.189-.929-.189h-2.908c-.275 0-.504.069-.688.207a.685.685 0 0 0-.258.567c0 .321.212.574.637.757.436.184 1.032.276 1.789.276Zm.017-10.856c.803 0 1.497.12 2.082.361.596.23 1.049.562 1.359.998.321.436.482.958.482 1.566 0 .596-.161 1.112-.482 1.548-.31.436-.763.774-1.359 1.015-.585.229-1.279.344-2.082.344-1.273 0-2.248-.258-2.924-.774-.666-.528-.998-1.239-.998-2.133 0-.608.155-1.13.464-1.566.321-.436.774-.768 1.359-.998.585-.241 1.285-.361 2.099-.361Zm0 1.48c-.459 0-.837.126-1.135.378-.298.252-.448.602-.448 1.049 0 .448.15.803.448 1.067.298.252.676.379 1.135.379.459 0 .832-.127 1.118-.379.299-.264.448-.619.448-1.067 0-.447-.149-.797-.448-1.049-.286-.252-.659-.378-1.118-.378Zm9.321-1.48c.872 0 1.635.178 2.289.533a3.762 3.762 0 0 1 1.548 1.531c.378.666.568 1.469.568 2.409 0 .929-.19 1.732-.568 2.408a3.758 3.758 0 0 1-1.548 1.532c-.654.355-1.417.533-2.289.533-.86 0-1.622-.178-2.288-.533a3.865 3.865 0 0 1-1.565-1.532c-.367-.676-.551-1.479-.551-2.408 0-.94.184-1.743.551-2.409.378-.665.9-1.175 1.565-1.531.666-.355 1.428-.533 2.288-.533Zm0 1.755c-.435 0-.808.103-1.118.309-.298.195-.527.494-.688.895-.16.401-.241.906-.241 1.514s.081 1.112.241 1.514c.161.401.39.705.688.912.31.195.683.292 1.118.292.425 0 .786-.097 1.084-.292.31-.207.545-.511.706-.912.16-.402.241-.906.241-1.514s-.081-1.113-.241-1.514c-.161-.401-.396-.7-.706-.895-.298-.206-.659-.309-1.084-.309Zm9.783-1.755c.872 0 1.634.178 2.288.533a3.762 3.762 0 0 1 1.548 1.531c.379.666.568 1.469.568 2.409 0 .929-.189 1.732-.568 2.408a3.758 3.758 0 0 1-1.548 1.532c-.654.355-1.416.533-2.288.533-.86 0-1.623-.178-2.288-.533a3.874 3.874 0 0 1-1.566-1.532c-.367-.676-.55-1.479-.55-2.408 0-.94.183-1.743.55-2.409a3.877 3.877 0 0 1 1.566-1.531c.665-.355 1.428-.533 2.288-.533Zm0 1.755c-.436 0-.809.103-1.118.309-.298.195-.528.494-.688.895-.161.401-.241.906-.241 1.514s.08 1.112.241 1.514c.16.401.39.705.688.912.309.195.682.292 1.118.292.424 0 .786-.097 1.084-.292.309-.207.545-.511.705-.912.161-.402.241-.906.241-1.514s-.08-1.113-.241-1.514c-.16-.401-.396-.7-.705-.895-.298-.206-.66-.309-1.084-.309Zm9.112 7.191a3.5 3.5 0 0 1-1.91-.533c-.551-.356-.986-.866-1.308-1.532-.309-.665-.464-1.462-.464-2.391 0-.952.166-1.76.499-2.426.333-.676.78-1.187 1.342-1.531a3.584 3.584 0 0 1 1.927-.533c.757 0 1.382.218 1.875.654.493.436.814.998.963 1.686l-.223.275v-6.21h2.356v12.369h-2.116l-.154-2.615.292.138a3.187 3.187 0 0 1-.551 1.41 2.98 2.98 0 0 1-1.083.912 3.186 3.186 0 0 1-1.445.327Zm.688-1.806c.413 0 .768-.104 1.066-.31.299-.218.528-.533.688-.946.172-.413.259-.906.259-1.48 0-.55-.081-1.015-.241-1.393-.161-.39-.39-.688-.688-.895a1.803 1.803 0 0 0-1.05-.31c-.642 0-1.147.23-1.514.689-.355.447-.533 1.106-.533 1.978 0 .872.178 1.537.533 1.996.356.447.849.671 1.48.671Zm8.824-9.72v4.128l-.292 3.562h-1.893l-.292-3.562v-4.128h2.477Zm-1.238 8.859c.447 0 .802.121 1.066.362.264.24.396.562.396.963 0 .413-.132.74-.396.981-.264.229-.619.344-1.066.344-.448 0-.803-.115-1.067-.344-.264-.241-.396-.568-.396-.981 0-.401.132-.723.396-.963.264-.241.619-.362 1.067-.362Z"/><path fill="#696969" d="M111.723 379.621h1.35l2.699 4.543h.114l2.699-4.543h1.349l-3.516 5.721v4.011h-1.179v-4.011l-3.516-5.721Zm11.516 9.884c-.659 0-1.237-.157-1.735-.471a3.193 3.193 0 0 1-1.159-1.316c-.276-.564-.413-1.223-.413-1.977 0-.76.137-1.424.413-1.991a3.194 3.194 0 0 1 1.159-1.321c.498-.313 1.076-.47 1.735-.47s1.235.157 1.729.47c.498.314.884.754 1.16 1.321.278.567.418 1.231.418 1.991 0 .754-.14 1.413-.418 1.977a3.146 3.146 0 0 1-1.16 1.316c-.494.314-1.07.471-1.729.471Zm0-1.008c.5 0 .912-.128 1.235-.385.323-.256.562-.594.718-1.012.155-.418.232-.871.232-1.359s-.077-.942-.232-1.363a2.305 2.305 0 0 0-.718-1.022c-.323-.26-.735-.39-1.235-.39-.501 0-.913.13-1.236.39-.323.26-.562.6-.717 1.022a3.914 3.914 0 0 0-.233 1.363c0 .488.078.941.233 1.359.155.418.394.756.717 1.012.323.257.735.385 1.236.385Zm9.618-2.128v-4.315h1.122v7.299h-1.122v-1.236h-.076a2.395 2.395 0 0 1-.798.946c-.361.256-.817.385-1.369.385-.456 0-.861-.1-1.216-.3a2.092 2.092 0 0 1-.836-.912c-.203-.409-.304-.923-.304-1.544v-4.638h1.121v4.562c0 .532.149.956.447 1.273.301.317.684.475 1.15.475.278 0 .562-.071.85-.214.292-.142.535-.361.732-.655.199-.295.299-.67.299-1.126Zm9.086 3.155a2.97 2.97 0 0 1-1.259-.262 2.156 2.156 0 0 1-.898-.765c-.222-.336-.332-.741-.332-1.216 0-.418.082-.757.247-1.017.164-.263.385-.469.66-.618.276-.149.58-.259.912-.332.336-.076.674-.137 1.013-.181.443-.057.803-.1 1.078-.128.279-.032.482-.084.608-.157.13-.073.195-.2.195-.38v-.038c0-.469-.128-.833-.385-1.093-.253-.26-.638-.39-1.154-.39-.536 0-.955.118-1.259.352-.305.234-.518.485-.642.751l-1.064-.38c.19-.444.443-.789.76-1.036a2.85 2.85 0 0 1 1.045-.523c.38-.101.754-.152 1.122-.152.234 0 .503.029.807.086.308.053.604.166.889.337.288.171.527.429.717.774.191.346.286.808.286 1.388v4.809h-1.122v-.989h-.057a1.98 1.98 0 0 1-.38.509c-.177.18-.413.334-.708.461-.295.126-.654.19-1.079.19Zm.172-1.008c.443 0 .817-.087 1.121-.261a1.783 1.783 0 0 0 .931-1.544v-1.027c-.047.057-.152.11-.313.157a5.48 5.48 0 0 1-.552.119c-.205.032-.407.06-.603.085l-.47.057c-.292.038-.564.1-.818.186-.25.082-.453.207-.608.375-.152.165-.228.39-.228.675 0 .389.144.684.432.884.292.196.661.294 1.108.294Zm6.342-8.895v9.732h-1.122v-9.732h1.122Zm2.054 9.732v-7.299h1.083v1.14h.095c.152-.389.398-.692.736-.907.339-.219.747-.328 1.222-.328.481 0 .882.109 1.202.328.323.215.575.518.755.907h.076c.187-.377.468-.676.841-.898.374-.225.822-.337 1.345-.337.653 0 1.186.204 1.601.613.415.405.623 1.037.623 1.896v4.885h-1.122v-4.885c0-.539-.147-.924-.441-1.155a1.64 1.64 0 0 0-1.041-.347c-.513 0-.911.156-1.193.466-.282.307-.423.697-.423 1.169v4.752h-1.14v-4.999c0-.415-.135-.749-.404-1.003-.269-.256-.616-.385-1.04-.385-.292 0-.564.078-.818.233a1.76 1.76 0 0 0-.608.646 1.911 1.911 0 0 0-.228.946v4.562h-1.121Zm14.594.152c-.659 0-1.237-.157-1.734-.471a3.195 3.195 0 0 1-1.16-1.316c-.275-.564-.413-1.223-.413-1.977 0-.76.138-1.424.413-1.991a3.197 3.197 0 0 1 1.16-1.321c.497-.313 1.075-.47 1.734-.47s1.236.157 1.73.47c.497.314.884.754 1.159 1.321.279.567.418 1.231.418 1.991 0 .754-.139 1.413-.418 1.977a3.144 3.144 0 0 1-1.159 1.316c-.494.314-1.071.471-1.73.471Zm0-1.008c.501 0 .912-.128 1.236-.385.323-.256.562-.594.717-1.012.155-.418.233-.871.233-1.359s-.078-.942-.233-1.363a2.295 2.295 0 0 0-.717-1.022c-.324-.26-.735-.39-1.236-.39-.5 0-.912.13-1.235.39-.323.26-.563.6-.718 1.022a3.914 3.914 0 0 0-.233 1.363c0 .488.078.941.233 1.359.155.418.395.756.718 1.012.323.257.735.385 1.235.385Zm10.189-4.808-1.008.285a1.858 1.858 0 0 0-.28-.49 1.368 1.368 0 0 0-.494-.399c-.209-.104-.477-.157-.803-.157-.447 0-.819.103-1.117.309-.294.203-.442.461-.442.775 0 .278.102.499.305.66.202.162.519.296.95.404l1.083.266c.653.159 1.139.401 1.459.727.32.323.48.74.48 1.25 0 .418-.121.792-.361 1.121-.238.33-.57.589-.998.779-.428.191-.925.286-1.492.286-.745 0-1.361-.162-1.848-.485-.488-.323-.797-.795-.927-1.416l1.064-.266c.102.393.293.687.575.884.285.196.658.294 1.117.294.523 0 .938-.111 1.245-.332.31-.225.465-.495.465-.808a.846.846 0 0 0-.266-.637c-.177-.174-.449-.304-.817-.389l-1.216-.286c-.669-.158-1.16-.403-1.473-.736-.311-.336-.466-.756-.466-1.259 0-.412.116-.776.347-1.093.234-.317.553-.566.955-.746a3.346 3.346 0 0 1 1.378-.271c.722 0 1.289.158 1.701.475.415.317.71.735.884 1.255Zm4.995-1.635v.95h-3.782v-.95h3.782Zm-2.68-1.749h1.121v6.957c0 .317.046.554.138.713a.717.717 0 0 0 .361.313c.149.051.306.076.471.076.123 0 .225-.006.304-.019l.19-.038.228 1.008a2.293 2.293 0 0 1-.318.085 2.327 2.327 0 0 1-.518.048c-.317 0-.628-.069-.932-.205a1.84 1.84 0 0 1-.75-.622c-.197-.279-.295-.631-.295-1.055v-7.261Zm8.13 9.048v-7.299h1.083v1.102h.076c.133-.361.374-.654.723-.879a2.123 2.123 0 0 1 1.178-.337c.082 0 .185.002.309.005.123.003.217.008.28.014v1.14a3.772 3.772 0 0 0-.261-.042 2.483 2.483 0 0 0-.423-.034 1.98 1.98 0 0 0-.95.224 1.678 1.678 0 0 0-.656.608c-.158.257-.238.55-.238.879v4.619h-1.121Zm7.816.152c-.703 0-1.309-.156-1.819-.466a3.13 3.13 0 0 1-1.174-1.312c-.273-.563-.409-1.219-.409-1.967 0-.747.136-1.406.409-1.976a3.223 3.223 0 0 1 1.15-1.34c.494-.323 1.07-.485 1.729-.485.381 0 .756.063 1.127.19a2.8 2.8 0 0 1 1.012.618c.304.282.546.656.727 1.121.18.466.27 1.039.27 1.72v.475h-5.625v-.969h4.485c0-.412-.082-.779-.247-1.102a1.866 1.866 0 0 0-.694-.765 1.942 1.942 0 0 0-1.055-.281c-.446 0-.833.111-1.159.333a2.193 2.193 0 0 0-.746.855 2.518 2.518 0 0 0-.261 1.131v.646c0 .552.095 1.019.285 1.402.193.38.461.67.803.87.342.196.739.294 1.192.294.295 0 .561-.041.799-.123a1.73 1.73 0 0 0 .622-.38c.174-.171.309-.384.404-.637l1.083.304a2.39 2.39 0 0 1-.575.969 2.803 2.803 0 0 1-.997.647 3.703 3.703 0 0 1-1.336.228Zm6.876.019a2.97 2.97 0 0 1-1.259-.262 2.156 2.156 0 0 1-.898-.765c-.222-.336-.333-.741-.333-1.216 0-.418.083-.757.247-1.017.165-.263.385-.469.661-.618.275-.149.579-.259.912-.332.336-.076.673-.137 1.012-.181.444-.057.803-.1 1.079-.128.278-.032.481-.084.608-.157.13-.073.195-.2.195-.38v-.038c0-.469-.129-.833-.385-1.093-.254-.26-.638-.39-1.155-.39-.535 0-.955.118-1.259.352-.304.234-.518.485-.641.751l-1.065-.38c.19-.444.444-.789.76-1.036.32-.25.669-.425 1.046-.523.38-.101.754-.152 1.121-.152.235 0 .504.029.808.086.307.053.603.166.889.337.288.171.527.429.717.774.19.346.285.808.285 1.388v4.809h-1.121v-.989h-.057a1.98 1.98 0 0 1-.38.509c-.178.18-.414.334-.708.461-.295.126-.655.19-1.079.19Zm.171-1.008c.444 0 .817-.087 1.121-.261a1.77 1.77 0 0 0 .694-.675 1.71 1.71 0 0 0 .238-.869v-1.027c-.048.057-.152.11-.314.157a5.396 5.396 0 0 1-.551.119 22.327 22.327 0 0 1-1.074.142c-.291.038-.564.1-.817.186-.25.082-.453.207-.608.375-.152.165-.228.39-.228.675 0 .389.144.684.432.884.291.196.66.294 1.107.294Zm8.186.989c-.684 0-1.274-.162-1.768-.485a3.157 3.157 0 0 1-1.14-1.335c-.266-.567-.399-1.215-.399-1.944 0-.741.136-1.395.408-1.962a3.234 3.234 0 0 1 1.15-1.335c.494-.323 1.071-.485 1.73-.485.513 0 .976.095 1.387.285.412.19.75.456 1.012.798.263.343.427.742.49 1.198h-1.122c-.085-.333-.275-.627-.57-.884-.291-.26-.684-.39-1.178-.39a1.97 1.97 0 0 0-1.15.342c-.326.225-.581.544-.765.956-.181.408-.271.888-.271 1.439 0 .564.089 1.055.266 1.473.181.418.434.743.761.974.329.232.715.347 1.159.347.291 0 .556-.05.793-.152.238-.101.439-.247.604-.437.165-.19.282-.418.351-.684h1.122c-.063.431-.22.819-.471 1.164a2.617 2.617 0 0 1-.983.817c-.406.2-.878.3-1.416.3Zm5.631-4.543v4.391h-1.122v-9.732h1.122v3.573h.095c.171-.377.427-.676.769-.898.346-.225.805-.337 1.378-.337.498 0 .933.1 1.307.299.374.197.664.499.87.908.209.405.313.922.313 1.549v4.638h-1.121v-4.562c0-.58-.151-1.028-.452-1.345-.297-.32-.711-.48-1.24-.48a2.07 2.07 0 0 0-.988.233 1.702 1.702 0 0 0-.684.68c-.165.297-.247.659-.247 1.083Zm9.844 4.543c-.704 0-1.31-.156-1.82-.466a3.13 3.13 0 0 1-1.174-1.312c-.272-.563-.408-1.219-.408-1.967 0-.747.136-1.406.408-1.976a3.223 3.223 0 0 1 1.15-1.34c.494-.323 1.071-.485 1.73-.485.38 0 .755.063 1.126.19a2.8 2.8 0 0 1 1.012.618c.304.282.546.656.727 1.121.18.466.271 1.039.271 1.72v.475h-5.626v-.969h4.485c0-.412-.082-.779-.247-1.102a1.864 1.864 0 0 0-.693-.765 1.944 1.944 0 0 0-1.055-.281c-.447 0-.833.111-1.16.333a2.193 2.193 0 0 0-.746.855 2.518 2.518 0 0 0-.261 1.131v.646c0 .552.095 1.019.285 1.402.193.38.461.67.803.87.342.196.74.294 1.193.294.294 0 .56-.041.798-.123.241-.086.448-.213.622-.38.175-.171.309-.384.404-.637l1.084.304a2.401 2.401 0 0 1-.575.969c-.27.276-.602.491-.998.647a3.701 3.701 0 0 1-1.335.228Zm7.483 0c-.608 0-1.145-.154-1.61-.461-.466-.311-.83-.748-1.093-1.312-.263-.567-.395-1.237-.395-2.01 0-.766.132-1.432.395-1.995.263-.564.629-1 1.097-1.307.469-.307 1.011-.461 1.625-.461.476 0 .851.079 1.127.238.278.155.491.332.636.532.149.196.265.358.347.484h.095v-3.592h1.122v9.732h-1.084v-1.122h-.133a7.112 7.112 0 0 1-.351.504 2.102 2.102 0 0 1-.651.537c-.282.155-.658.233-1.127.233Zm.153-1.008c.449 0 .829-.117 1.14-.351.31-.238.546-.566.708-.984.161-.421.242-.908.242-1.459 0-.545-.079-1.021-.237-1.43-.159-.412-.393-.732-.704-.96-.31-.231-.693-.347-1.149-.347-.476 0-.872.122-1.188.366-.314.241-.55.569-.708.984a3.892 3.892 0 0 0-.233 1.387c0 .52.079.992.237 1.416.162.422.4.757.713 1.008.317.247.71.37 1.179.37Zm9.888 3.592c-.19 0-.36-.015-.509-.047a1.336 1.336 0 0 1-.309-.086l.285-.988c.273.07.514.095.723.076a.866.866 0 0 0 .556-.28c.164-.165.315-.433.451-.803l.209-.57-2.699-7.337h1.217l2.014 5.816h.076l2.015-5.816h1.216l-3.098 8.363a3.15 3.15 0 0 1-.518.936c-.205.25-.445.436-.717.556-.269.12-.573.18-.912.18Zm9.429-2.584c-.659 0-1.237-.157-1.734-.471a3.195 3.195 0 0 1-1.16-1.316c-.275-.564-.413-1.223-.413-1.977 0-.76.138-1.424.413-1.991a3.197 3.197 0 0 1 1.16-1.321c.497-.313 1.075-.47 1.734-.47s1.236.157 1.73.47c.497.314.884.754 1.159 1.321.279.567.418 1.231.418 1.991 0 .754-.139 1.413-.418 1.977a3.144 3.144 0 0 1-1.159 1.316c-.494.314-1.071.471-1.73.471Zm0-1.008c.501 0 .913-.128 1.236-.385.323-.256.562-.594.717-1.012.155-.418.233-.871.233-1.359s-.078-.942-.233-1.363a2.295 2.295 0 0 0-.717-1.022c-.323-.26-.735-.39-1.236-.39-.5 0-.912.13-1.235.39-.323.26-.562.6-.718 1.022a3.914 3.914 0 0 0-.233 1.363c0 .488.078.941.233 1.359.156.418.395.756.718 1.012.323.257.735.385 1.235.385Zm9.619-2.128v-4.315h1.121v7.299h-1.121v-1.236h-.076a2.397 2.397 0 0 1-.799.946c-.361.256-.817.385-1.368.385-.456 0-.862-.1-1.217-.3a2.104 2.104 0 0 1-.836-.912c-.203-.409-.304-.923-.304-1.544v-4.638h1.121v4.562c0 .532.149.956.447 1.273.301.317.684.475 1.15.475.279 0 .562-.071.851-.214a1.85 1.85 0 0 0 .731-.655c.2-.295.3-.67.3-1.126Zm3.175 2.984v-7.299h1.083v1.102h.076c.133-.361.374-.654.723-.879a2.123 2.123 0 0 1 1.178-.337c.082 0 .185.002.309.005.123.003.217.008.28.014v1.14a3.772 3.772 0 0 0-.261-.042 2.483 2.483 0 0 0-.423-.034 1.98 1.98 0 0 0-.95.224 1.636 1.636 0 0 0-.894 1.487v4.619h-1.121Zm11.688 2.889c-.542 0-1.008-.07-1.397-.21a2.946 2.946 0 0 1-.974-.541 2.967 2.967 0 0 1-.613-.713l.893-.627c.101.133.23.285.385.456.155.174.367.325.637.451.272.13.628.195 1.069.195.589 0 1.075-.142 1.458-.427.384-.286.575-.732.575-1.34v-1.483h-.095a5.877 5.877 0 0 1-.351.494 2 2 0 0 1-.647.518c-.278.149-.655.224-1.13.224a3.04 3.04 0 0 1-1.587-.419c-.466-.278-.835-.684-1.108-1.216-.269-.532-.403-1.178-.403-1.939 0-.747.131-1.398.394-1.953.263-.557.629-.988 1.098-1.292.468-.307 1.01-.461 1.625-.461.475 0 .852.079 1.13.238.282.155.498.332.647.532.152.196.269.358.351.484h.114v-1.159h1.084v7.508c0 .627-.143 1.137-.428 1.53a2.436 2.436 0 0 1-1.14.869 4.3 4.3 0 0 1-1.587.281Zm-.038-4.011c.449 0 .83-.103 1.14-.309.31-.206.546-.502.708-.888.162-.387.242-.849.242-1.388 0-.526-.079-.99-.237-1.392a2.104 2.104 0 0 0-.703-.946c-.311-.228-.694-.342-1.15-.342-.476 0-.871.121-1.188.361-.314.241-.55.564-.708.97a3.748 3.748 0 0 0-.233 1.349c0 .507.079.955.238 1.345.161.386.399.691.712.912.317.219.71.328 1.179.328Zm8.21 1.274c-.658 0-1.237-.157-1.734-.471a3.186 3.186 0 0 1-1.159-1.316c-.276-.564-.414-1.223-.414-1.977 0-.76.138-1.424.414-1.991a3.187 3.187 0 0 1 1.159-1.321c.497-.313 1.076-.47 1.734-.47.659 0 1.236.157 1.73.47.497.314.884.754 1.159 1.321.279.567.419 1.231.419 1.991 0 .754-.14 1.413-.419 1.977a3.144 3.144 0 0 1-1.159 1.316c-.494.314-1.071.471-1.73.471Zm0-1.008c.501 0 .913-.128 1.236-.385.323-.256.562-.594.717-1.012.156-.418.233-.871.233-1.359a3.89 3.89 0 0 0-.233-1.363 2.295 2.295 0 0 0-.717-1.022c-.323-.26-.735-.39-1.236-.39-.5 0-.912.13-1.235.39-.323.26-.562.6-.717 1.022a3.89 3.89 0 0 0-.233 1.363c0 .488.077.941.233 1.359.155.418.394.756.717 1.012.323.257.735.385 1.235.385Zm7.167 1.027a2.97 2.97 0 0 1-1.259-.262 2.156 2.156 0 0 1-.898-.765c-.222-.336-.333-.741-.333-1.216 0-.418.083-.757.247-1.017.165-.263.385-.469.661-.618.275-.149.579-.259.912-.332.336-.076.673-.137 1.012-.181.444-.057.803-.1 1.079-.128.279-.032.481-.084.608-.157.13-.073.195-.2.195-.38v-.038c0-.469-.128-.833-.385-1.093-.253-.26-.638-.39-1.155-.39-.535 0-.955.118-1.259.352-.304.234-.518.485-.641.751l-1.065-.38c.19-.444.444-.789.761-1.036.319-.25.668-.425 1.045-.523.38-.101.754-.152 1.121-.152.235 0 .504.029.808.086.307.053.603.166.889.337.288.171.527.429.717.774.19.346.285.808.285 1.388v4.809h-1.121v-.989h-.057a1.98 1.98 0 0 1-.38.509c-.178.18-.414.334-.708.461-.295.126-.654.19-1.079.19Zm.171-1.008c.444 0 .817-.087 1.121-.261a1.77 1.77 0 0 0 .694-.675 1.71 1.71 0 0 0 .238-.869v-1.027c-.048.057-.152.11-.314.157a5.396 5.396 0 0 1-.551.119 22.327 22.327 0 0 1-1.074.142c-.291.038-.564.1-.817.186-.25.082-.453.207-.608.375-.152.165-.228.39-.228.675 0 .389.144.684.432.884.291.196.66.294 1.107.294Zm6.342-8.895v9.732h-1.121v-9.732h1.121Z"/><circle cx="73.03" cy="371.944" r="24.015" fill="#ECEAF8"/><path fill="#344BFD" d="M73.03 384.064c6.683 0 12.12-5.437 12.12-12.12 0-6.683-5.437-12.12-12.12-12.12-6.683 0-12.12 5.437-12.12 12.12 0 6.683 5.438 12.12 12.12 12.12Zm4.234-15.756a1.803 1.803 0 0 1 1.715 1.107 1.81 1.81 0 1 1-1.715-1.107Zm-5.213 8.386c.647.13 1.312.13 1.959 0 .306-.063.612-.159.909-.282.283-.121.562-.272.823-.446.252-.172.493-.371.716-.593.222-.221.42-.462.593-.717l2.01 1.353a7.283 7.283 0 0 1-4.567 3.061 7.408 7.408 0 0 1-2.926-.002 7.155 7.155 0 0 1-2.604-1.094A7.371 7.371 0 0 1 67 376.008l2.01-1.354c.173.256.372.497.591.715a4.827 4.827 0 0 0 2.451 1.325Zm-3.263-8.386a1.807 1.807 0 0 1 1.286.533 1.826 1.826 0 0 1 .532 1.286 1.816 1.816 0 0 1-1.819 1.818 1.815 1.815 0 0 1-1.818-1.819 1.82 1.82 0 0 1 1.82-1.818Z"/></svg>